<svg xmlns="http://www.w3.org/2000/svg" viewBox="0 0 24 30" x="0px" y="0px"><path d="M2.5,7.15c-.41,0-.75,.34-.75,.75v8.81c0,.41,.34,.75,.75,.75s.75-.34,.75-.75v-3.65h6.3v.94c0,.41,.34,.75,.75,.75h10.43v1.68c0,.42,.34,.75,.75,.75,.42,0,.75-.33,.75-.75v-6.91c0-1.52-1.23-2.75-2.75-2.75H10.3c-.41,0-.75,.33-.75,.75v4.04H3.25v-3.66c0-.41-.34-.75-.75-.75Z"/><path d="M8.64,9c0-1.23-1.01-2.23-2.24-2.23s-2.23,1-2.23,2.23,1,2.23,2.23,2.23,2.24-1,2.24-2.23Z"/><text x="0" y="39" fill="#000000" font-size="5px" font-weight="bold" font-family="'Helvetica Neue', Helvetica, Arial-Unicode, Arial, Sans-serif">Created by Rini Bahtiar</text><text x="0" y="44" fill="#000000" font-size="5px" font-weight="bold" font-family="'Helvetica Neue', Helvetica, Arial-Unicode, Arial, Sans-serif">from the Noun Project</text></svg>