<?xml version="1.0" encoding="UTF-8"?>
<svg width="603" height="663" version="1.1" viewBox="-2.5 -2.5 605 578" xmlns="http://www.w3.org/2000/svg" xmlns:xlink="http://www.w3.org/1999/xlink">
 <defs>
  <path id="escutcheon" d="m300 660s300-110 300-400v-260h-600v260c0 290 300 400 300 400z"/>
 </defs>
 <path d="m300 616.4s-300-110-300-400v-260h300z" fill="#f00000"/>
 <path d="m300 616.4v-660h300v260c0 290-300 400-300 400z" fill="#fff"/>
 <path d="m319.94-30.973c-0.66337 0.0078-1.3775 0.12243-1.9165 0.14893v-0.01568c-2.723 0.1395-3.7861 3.2352-3.6311 5.5712-0.0481 8.065 0.13691 16.149 0.70741 24.189 0.0661 2.051 1.4224 4.6752 3.8624 4.1642 2.21-0.2752 4.9839-1.7212 6.7469 0.39584 3.111 5.316 3.6312 11.669 5.9592 17.319 1.128 2.935 3.5822 6.331 1.5892 9.459-1.3 1.579-1.6873 3.5828-1.5853 5.5868 0.1909 1.35 0.0582 4.049 1.1366 5.095 1.32 0.5636 3.4602 0.14236 3.4332-1.6284 0.6521-1.942 3.0069-2.3611 3.2529-0.35665 0.5058 1.837 0.57033 3.9342 2.2026 5.2282 3.726 3.45 6.1695 7.989 7.8325 12.71 2.838 7.537 5.5194 15.169 6.8684 23.139 2.498 10.72 4.5044 21.84 10.168 31.459 1.0863 1.7892 3.9107 6.5241 5.9709 9.4453-2.6101 6.7177 0.82692 9.3942-6.692 20.239-3.6899 3.474-9.204 6.4251-14.26 4.2621-2.782-2.101-6.0346-3.7301-9.6236-3.4901-5.3409 0.1675-11.88-0.72856-15.8 3.7997-4.8139 5.335-4.7295 13.17-4.3915 19.91 0.9007 7.3959 3.885 14.241 3.978 21.71 0.5863 11.2 0.50738 22.491-0.86222 33.631-0.5244 4.2609 0.82956 8.3825 2.573 12.2 2.265 7.0269 0.40523 14.459 0.63883 21.669 0.3014 3.1659-0.63666 8.2945 2.2908 10.55 2.367 0.4778 4.7878-2.1084 5.7808-3.9114 1.24-3.4979 0.66351-8.2309 3.3548-11.211 1.878-3.9749 0.11084-8.7265 0.23124-12.929-0.5316-5.2519-0.46506-10.45 2.1614-15.11 2.051-4.2069 4.6038-8.5169 2.9178-13.98-1.953-2.461-4.7211-1.2576-4.5541 0.67998-0.2929 1.906-2.7826 2.2879-3.6116 0.62119-1.815-3.7829 0.35072-11.35-0.0118-15.44-0.0485-9.4719 0.36961-15.41 0.97981-24.85 2.2729-2.3719 4.3681-5.1312 7.615-3.1412 4.492 2.692 4.927 9.647 10.48 11.011 2.211 0.5602 4.1276 1.8112 5.3536 3.7311 14.9 7.41 7.4568 4.7641 8.7457 6.3511-0.3293 3.8469 2.007 7.4494 3.2 11.04 2.9109 8.4029 9.151 14.941 13.829 22.351 7.167 10.21 12.67 27.66 18.62 38.54-0.14207 7.5748 0.46303 15.085-0.14697 23.886-14.396 7.3521-31.103 16.1-43.403 22.408l2e-3 -6e-3c-5.5769 2.819-11.358 6.4542-13.658 12.6-3.618 8.9859-3.6954 19.08-2.1164 28.52 1.835 9.9039 8.8783 17.61 12.549 26.76 4.3939 10.23 9.2836 20.551 12.101 31.301 1.318 6.4999 0.11189 13.17-0.15481 19.71-0.2095 6.409-3.9873 11.99-5.7103 18.05-2.9489 9.3489-6.9138 18.329-11.65 26.909-3.9599 8.1059-8.5324 15.991-11.571 24.501-1.3035 5.7958-2.6935 11.04-4.9402 15.644-2.915 4.205-6.7277 7.7521-9.3297 12.171-1.378 2.879-2.6458 5.8724-3.3078 9.0024-0.3582 1.9219 0.95427 4.9873 3.0942 4.6893 2.781-0.0876 5.3203-1.8611 7.6993-3.0531 3.885-2.394 8.4658-4.2954 12.428-6.5294 3.0179-1.815 4.5076-5.6974 4.9186-8.9064 0.193-2.234-1.3747-7.5125-2.524-8.8574 3.4391-3.8158 10.2-12.464 11.644-18.12 3.406-6.419 9.69-11.16 11.45-18.459 2.053-6.514 3.5888-13.099 5.9278-19.539 1.457-6.4219 5.0552-12.34 7.8502-18.23 4.098-7.396 6.6556-17.292 7.7835-25.632-0.95263-5.26-2.0821-11.75-3.7311-16.79 0.0236-22.068-0.089-23.499-0.13325-40.819 9.0549-1.523 18.345-5.3337 26.045-10.3 0.47292-0.37117 1.6452-1.5308 3.7899-2.8493 5.0234 6.019 13.838 7.8923 17.958 10.082 6.4049 2.957 18.724 8.1682 25.614 9.8862 7.4969 2.375 14.82 5.6275 21.63 10.26-0.58253 8.6379-3.8097 21.629-6.5157 29.829-4.8509 12.32-5.8299 25.692-9.2219 38.332-1.506 6.3199-5.3852 12.668-4.7442 19.388 0.47016 1.0233-3.8608 4.7361-4.5463 6.6705-0.97255 2.723-1.3362 5.6928-2.9512 8.1598-1.752 3.033-4.2881 5.5361-6.0121 8.5811-1.723 3.312-1.0792 7.2946 0.45463 10.549 3.094 4.618 12.56-0.54969 15.15-3.1099 3.475-3.284 6.0627-8.0434 7.6307-12.5 0.83687-2.2731-1.2347-10.362-0.58592-13.094 5.1688-9.9515 11.942-21.954 17.125-31.555 2.819-5.0769 0.68217-10.19 1.3698-15.7 1.1209-13.43 8.0022-23.901 13.378-35.951 2.9959-6.8979 6.8505-14.528 7.0075-22.198 0.1865-4.8349-3.3276-9.3607-7.8756-10.492-8.5599-2.33-17.529-5.6666-24.299-11.519-4.8389-4.17-9.9491-8.4115-13.631-13.66-2.788-5.429-2.1315-11.48-2.6945-17.37-0.0895-5.625-0.70132-10.83-0.58592-16.41 2.487 0.5454 2.5647 2.8448 4.3307 4.4757 2.312 2.33 4.9371 6.1044 9.4531 6.9194 5.6289-2.263 4e-3 -7.9524 1.9439-7.0644 3.397 2.533 8.1092 4.0282 12.118 1.9812 2.963-1.342 5.814-4.0759 5.434-7.2348-0.1164-3.092 0.9333-7.2213 0.3978-10.221-3.499 0.1816-8.4214 0.55908-12.01 0.20968-6.3339-0.1868-11.42-4.0462-16.9-7.0722-3.6539-1.922-6.3348-4.7933-6.9958-8.8143-4.6379-22.71-9.7917-44.81-13.79-67.61-0.92313-11.39-1.826-23.46-0.78972-34.84 1.77-12.79 5.2682-25.181 7.5602-37.91 2.103-11.52 5.2216-22.55 9.7745-33.399 2.624-7.6599 6.7207-16.921 6.0767-25.291-1.585-13.13 0.2248-2.3218-2.0811-9.1807-2.1669-6.227-2.2206-8.6841-6.3746-13.821 7.479 1.171 13.18 0.88217 21.52 2.379 1.6819-0.90909 2.0069-4.2618 2.3829-5.9748 0.4321-5-4.718-10.07-9.4629-9.9038-7.4139-0.529-15.191 0.22849-22.071-2.7121-2.358-1.296-0.14815-3.4879 0.95825-4.9519 0.49157-0.47433 0.74315-1.2293 0.83479-1.9929 1.9142-0.12522 3.7556-0.33618 4.4385-0.41348 8.752 0.5498 15.381 2.2167 22.731 6.9546 5.147 3.1765 9.7698 7.6464 13.553 12.61-6e-3 0.08298-0.02 0.12441-0.0235 0.21948-0.7994 13.31-4.6544 31.659-10.213 43.719-2.022 4.313-4.318 8.4943-6.259 12.839-0.3391 1.028-0.45526 2.5389 0.68194 3.1079 1.226 0.4759 5.3966-1.3064 6.2276-2.1164 8.6192-8.8822 15.877-23.982 20.531-36.643 3.6575 9.3038 6.2649 18.994 6.1492 29.037-0.2392 14.83-3.8046 30.349-13.02 42.349-7.061 9.255-16.611 16.651-26.611 22.671-2.416 1.548-5.5288 1.541-8.2578 2.183-1.295 0.7897 0.56391 2.3588 1.4109 2.5828 2.937 1.721 4.3553 3.0025 7.5543 2.1575 8.301-1.75 19.099-10.041 25.169-14.231 4.913-3.163 5.9214-10.71 11.04-12.03 22.59-35.93 18.131-41.991 15.771-65.831-4.112-17.92-4.3394-27.104-12.953-42.312-0.8192-4.85-2.9626-16.828-5.3086-21.158-0.7263-2.948-8.951-11.129-11.789-15.179-8.623-7.905-5.2246-5.3026-17.97-9.7686-4.75-1.245-10.286-2.8617-15.412-2.9845-3.0752-0.07362-6.0048 0.39092-8.5282 1.795-6.0453 1.1883-11.83 4.258-15.759 9.0475-0.0451 0.34336-0.61902 0.76241-1.3639 1.1993-0.99655-0.22218-2.0198-0.37237-3.0394-0.44091-1.4154-0.09516-2.8212-0.05118-4.125 0.10582l0.0274 0.0078c-5.4999-0.01206-9.7989 4.1228-13.929 7.2368-3.9349 3.475-8.638 6.2573-13.921 6.8233-4.1239 0.89499-9.5011 1.058-11.879 5.142-0.4712 2.228-1.9242 4.3863-4.4052 4.5953-4.0929 1.103-7.9213 3.8314-9.1063 8.0853-1.163 2.784-1.1356 6.7296 2.0204 8.1696 1.3239 0.53722 2.4062 0.77954 3.5606 1.1013-3.5383 2.5391-7.3625 5.6073-9.5296 7.1055-0.5522 0.4644-1.0259 1.9513-0.38996 1.8753 2.059 0.2904 5.9256 1.1773 8.0246 0.92493 1.0507-0.04142 3.7197-0.25994 6.0689-0.43503-0.90981 2.336-1.2811 4.7875 0.25279 6.9899 1.603 2.856 5.5676 2.3392 7.8796 4.4052 2.42 1.481 3.9144 4.1104 3.9584 6.9174 1.326 1.409 3.4969-0.48242 4.5169-1.5324 1.273-2.048 3.0943-4.0033 5.7103-3.9623 11.81-0.4562 23.699 0.0898 35.479 0.54477 1.511-0.2944 6.1741 0.73773 2.8571 1.3227-7.1839 6e-3 -14.409-0.3529-21.569-0.3057-2.0899 1.236-1.4087 4.3305-2.1987 6.3315-0.5346 4.925-4.8895 7.8211-8.7085 10.231-4.8009 3.103-10.349 7.5054-9.9861 13.858 0.196 2.451-1.7698 4.3377-4.0858 4.7207-2.5159 0.51169-0.9379 3.6822-1.4795 5.4712 5e-3 2.6393-1.4098 4.5982-3.1824 6.2884-2.4611-0.95288-5.8164-2.0037-6.2315-2.8885-4.249-6.481-6.1367-12.971-9.8627-19.741-4.155-8.273-11.731-15.719-18.491-21.979-4.457-4.218-9.0996-8.7136-11.08-14.721-0.8358-2.876-2.5823-5.2944-4.5463-7.5014-2.432-3.316-2.5962-7.6118-3.8741-11.411-0.8484-2.717 0.77844-6.326-0.23516-8.9769-1.212-2.12-4.8445-0.36801-5.6045-2.9786-0.8292-1.436-1.8185-2.1637-2.7395-3.5077-0.9845-0.8165-2.996-0.74944-2.91-2.4044-0.4803-3.338 0.1999-7.5215-0.6741-10.795-1.406-3.936-2.6664-8.3909-4.0054-12.328-1.555-2.162-3.7377-3.7661-5.1596-6.0101-0.33215-0.40415-0.94351-0.50354-1.6069-0.49578z" fill="#f00000" style="paint-order:normal"/>
 <path d="m281.35-30.77c-2.301-0.0396-3.229 2.3619-4.513 3.8349-1.348 1.603-3.2984 2.8325-3.7664 5.0205-0.9393 3.884-2.295 7.6256-3.541 11.419-0.1572 3.384 0.0529 6.8436-0.40172 10.161-0.719 1.061-2.3173 0.93054-2.8943 2.1712-1.02 1.291-2.3354 2.3543-2.9904 3.9133-1.228 1.933-4.4458 0.43558-5.3968 2.718-0.7901 2.532-0.44977 5.2497-1.2385 7.7757-1.136 3.68-1.5649 7.6568-3.4509 11.07-1.432 2.148-3.4639 3.9097-4.3248 6.4177-1.561 4.125-3.3211 8.2181-6.5921 11.299-7.236 7.503-15.31 14.479-20.45 23.709-6.4963 7.2707-7.6624 22.134-16.331 25.496-1.7829 0.77896-1.3726 0.97558-2.7062-0.19008-2.933-2.662-2.6114-6.4053-3.5684-9.7843-1.348-2.001-5.3118-1.555-5.0068-4.801 0.4056-7.4-5.9208-13.07-11.56-16.5-3.988-2.389-8.5631-10.52-8.7281-15.42 6.306-1.46 1.7883-1.1574 15.851-0.86027 2.362 0.2036 4.3846 1.4816 5.3556 3.6076 1.159 0.9537 3.673 3.8193 4.901 1.7323 0.309-4.019 3.2355-7.4073 7.1545-8.3773 4.169-0.97735 5.6328-3.1741 6.4236-10.333 3.176-0.36245 3.4829 0.77907 5.046 0.6937 2.062-0.3677 6.9281-0.72854 7.2701-2.5514-2.3516-1.6946-6.7872-5.1084-10.741-7.856 1.8955 0.23321 3.9645 0.31876 5.675-1.1366 3.678-3.671 0.80771-9.8771-2.5181-12.8-2.75-3.178-8.6483-2.1032-9.7843-6.8312-2.564-5.579-9.8261-5.0343-14.84-6.4882-9.7312-1.8937-15.269-12.982-25.218-13.47-0.66326-0.03257-1.3467-0.01655-2.0517 0.05095h-0.0137c-1.2692-0.05876-2.4891 0.12886-3.6586 0.45855-1.1664-0.97276-2.8432-2.0978-3.7938-2.6298-4.232-4.443-10.099-7.1495-16.129-8.0285-0.3025-0.1642-0.85725 0.45631-0.91905 0.15481-0.7139-0.8419-2.0444-0.50529-3.0374-0.64079-0.8935-0.02297-1.7872-0.03426-2.6807-0.03919-0.8935-0.0049-1.7872-0.0018-2.6807 0.0039-3.2347-0.02248-6.4559 0.55201-9.5687 1.3894-0.596 0.2897-1.0321 0.82318-1.5011 1.2718-0.2602-1.082-1.5156-0.49419-2.2006-0.26259-5.278 1.824-10.341 4.4115-14.721 7.8854-0.7877 0.6699-1.2771 1.6154-1.5481 2.6004-0.297-0.8502-1.3311-0.392-1.7401 0.1117-3.404 3.246-6.5241 6.8705-8.8221 10.989-0.439 0.7522-0.48742 1.6545-0.37232 2.4985-0.5538-0.8438-1.3969 0.091307-1.5109 0.76816-2.297 4.679-5.1225 12.281-5.7965 17.454 0.85599 3.4548 0.32732 4.4093-1.3031 7.3191-2.871 6.273-3.8291 8.5706-5.6241 15.881-0.8132 3.129-1.9521 6.2509-2.4201 9.4179 1.214 1.865 0.62021 1.0283-0.53889 1.8303-0.9148 3.786-1.9019 7.6669-2.2849 11.501 1.457 1.225-0.11928 0.71584-0.37428 1.7734-0.5465 4.146-1.4358 8.3771-1.1738 12.559 0.1987 0.7878 0.89148 1.1926-0.03331 1.6696-0.5112 3.976-0.36938 8.2378 0.51342 12.089 0.8184 0.3452-0.51678 1.3031-2e-3 2.1791 0.5024 2.971 1.0362 6.463 2.5612 8.875-0.176 2.439 1.6021 4.7926 2.4711 7.0996 1.348 2.245 1.9108 5.2962 4.2798 6.7352-0.8578 1.734 2.0419 3.6007 2.7199 5.3517 1.311 2.026 3.0939 4.3787 4.7089 5.7887 0.3493 2.077 2.6932 3.5299 3.8722 5.3399 0.9788 1.045 1.8554 2.5058 3.3784 2.7768-0.6573 1.625 2.1032 2.791 2.9022 4.17 1.059 1.017 2.0165 2.3284 3.4685 2.7944 0.8497 1.956 3.3476 3.0493 4.9206 4.5953 0.9917 0.8879 2.5066 1.7965 3.6566 1.8675 0.3367 2.014 3.189 2.1834 4.562 3.2804 1.642 0.74 3.4781 1.7634 5.3321 1.2424 0.5375 1.434 2.9548 1.1212 4.3778 1.2992 3.117-0.0199 6.3945-1.1482 8.5125-3.4352-0.9034-1.579-3.5427-0.6612-5.1067-1.4893-6.875-2.357-12.479-7.2773-18.169-11.628-10.15-8.163-18.44-19.012-21.95-31.652-4.827-16.31-4.7085-34.19 1.7245-50.08 0.2361-0.60056 0.48207-1.2086 0.72113-1.8126 1.0222 1.021 2.0205 2.0052 2.2085 2.3006 0.2713 0.1866 0.3841 0.24944 0.2234 0.58004 0.1107 0.8085 0.52704 1.554 0.78384 2.328 0.8005 2.002 1.5499 4.0294 2.4319 5.9964 0.092 0.2595 0.49934 0.32107 0.30374 0.63687 0.1775 0.7898 0.63373 1.516 0.92493 2.279 0.5713 1.221 1.0457 2.4989 1.7597 3.6449 0.0635 0.1953 0.4516 0.21926 0.4272 0.38016-0.2675 0.5522 0.27764 1.0589 0.45854 1.5559 0.896 1.695 1.8046 3.3924 2.8826 4.9794 0.3653 0.1558 0.40015 0.32712 0.44875 0.68782 1.235 1.975 2.7458 3.7634 4.2798 5.5104 0.3476 0.2474 0.64367 0.13827 0.63687 0.62707 0.8976 1.047 1.9624 1.9478 2.9394 2.9218 1.265 1.166 2.4655 2.415 3.8075 3.492 0.7099 0.4787 1.7282 0.92317 2.5142 0.35077 0.8888-0.5619 0.84829-1.7669 0.65059-2.6709-0.5502-1.748-1.4867-3.3443-2.2947-4.9813-3.086-5.956-6.0049-12.031-8.2519-18.371-2.703-7.428-4.6277-15.149-5.5947-22.959-0.283-2.158-0.39126-4.3442-0.53106-6.5372-7e-3 -0.21171 0.13665-2.6947 0.22144-5.0068 2.2845-3.1381 4.9035-6.0136 7.9971-8.4714 8.606-7.16 19.642-10.551 30.762-11.221 0.85194-0.14712 1.8632 0.39328 2.8963 0.9994 0.0238 0.19542 0.0254 0.37926 0.0999 0.6016 0.106 2.012 3.6688 3.9463 1.9478 5.8533-6.777 4.127-15.04 3.4801-22.68 4.3111-5.498-0.321-10.68 5.0009-9.0396 10.531 0.2572 2.04 1.7874 4.6657 4.1014 3.0707 6.013-1.048 12.238-0.59686 18.218-1.3698 1.18-0.9262 2.4484-3.4212 3.9604-3.3882-0.9658 3.262-4.5862 5.5697-5.8161 8.7947-5.367 10.23-4.3062 10.7-5.2811 20.65 0.23595 9.945 5.8534 18.661 8.6124 27.981 5.471 16.58 7.3882 34.04 12.02 50.85 2.797 9.587 3.7218 19.45 3.2588 29.4 0.58885 21.35-5.6792 41.989-9.8411 62.748-1.991 8.89-3.8033 17.851-5.6632 26.751-1.807 5.388-6.7421 8.5227-11.591 10.88-4.548 2.516-9.3786 5.1416-14.77 4.3386-2.769 0.1402-7.4227-2.2901-10.108-2.3104-0.1172 4.754 0.79145 11.793 2.7336 16.363 3.443 5.29 11.39 4.512 15.62 0.90142 1.54 0.4907-0.83193 2.0717-0.18813 3.2157 0.1798 3.532 4.972 4.2059 6.939 1.6519 3.42-2.942 5.7068-7.4533 9.4198-9.8333 0.0375 9.843-0.56366 19.741-1.5932 29.541-1.138 7.546-8.2694 11.748-13.37 16.578-7.2 6.306-15.841 10.65-25.081 12.99-5.22 1.173-9.2644 6.1431-8.4674 11.591 1.766 13.39 9.4733 24.96 14.489 37.27 4.315 8.988 6.1253 18.9 6.0983 28.82-0.0244 3.65 0.0186 7.3069 2.5181 10.241 5.548 9.43 10.351 19.409 15.841 28.759-1.691 2.506-1.3769 5.959-1.4599 9.069 0.1336 3.09 1.6403 5.9083 2.9923 8.6183 2.9 5.453 7.6569 10.281 13.78 11.861 1.403 0.3264 2.975 0.6998 4.366 0.16265 1.079-0.9216 1.4357-2.4219 1.9537-3.6939 1.108-3.221 1.0122-7.082-1.1718-9.847-2.491-3.71-5.8515-7.0838-6.9605-11.509-0.7621-2.422-1.1627-5.1815-3.0237-7.0565-0.7551-0.666-1.8261-4.4362-2.8571-4.4072l-8e-3 2e-3c0.77605-3.4491-1.2024-7.2592-1.9322-10.592-5.711-15.14-5.9988-31.761-12.091-46.831-2.699-8.892-7.647-17.729-6.888-27.289 0.775-5.318 6.9997-6.3359 10.88-8.6399 11.39-5.564 23.881-8.2378 35.191-13.98 3.979-2.317 9.4011-0.97273 12.559-4.803 2.2642-1.6535 4.3969-3.4643 6.451-5.3576 2.6567 1.3257 5.3599 2.5848 5.8886 3.0394 10.26 10.12 15.23 7.4982 25.15 10.66-0.2309 13.44 0.89401 28.089 0.34881 41.499-0.2904 4.398-2.4821 8.346-3.2451 12.661-0.4744 2.506-1.5708 5.0374-0.50362 7.5464 1.469 6.861 3.7783 13.551 7.2603 19.661 2.661 5.394 5.8664 10.539 8.0304 16.159 1.034 4.91 3.0862 9.5129 3.7272 14.511 0.8668 4.835 2.508 9.5376 4.368 14.041 2.94 3.894 6.2196 7.5877 8.9456 11.609 1.824 4.522 3.6409 9.1409 6.8939 12.861 1.444 2.013 3.2596 3.6916 5.0146 5.4046-0.5202 0.3138-0.50547 3.2576-0.85047 3.8153-1.46 1.732-1.2939 4.1472-1.0229 6.2472 0.3763 2.725 0.75988 5.7492 2.8532 7.7542 1.736 1.696 4.1291 2.4249 6.2531 3.4959 3.759 1.693 7.2762 3.7846 10.811 5.8886 1.32 0.81625 2.8595 1.4381 4.4385 1.1601 1.421-0.1471 2.43-1.4441 2.571-2.8081 0.2722-1.905-0.69756-3.6907-1.2777-5.4457-1.034-2.808-2.1986-5.6282-4.1406-7.9462-2.685-3.354-5.6266-6.513-8.0226-10.09-0.60295-0.5008-1.5528-5.7859-2.2908-5.9278-0.632-4.48-1.3288-9.0354-3.4078-13.129-6.097-14.34-15.051-27.399-19.951-42.239-1.979-5.989-4.2429-11.871-6.6039-17.721-1.08-6.694-1.2735-13.511-1.4305-20.251 0.3222-6.25 3.0174-12 5.1224-17.779 4.437-10.88 8.749-21.95 15.091-31.91 5.97-9.666 7.003-21.609 5.338-32.639-0.9926-5.958-2.9935-12.201-7.8345-16.161-5.17-4.254-11.491-6.7683-17.331-9.9313-10.01-4.944-23.479-12.89-33.429-17.95-0.32129-0.19743-0.59683-0.29139-0.84655-0.3253-0.13993-7.8622-0.0977-14.471 0.0176-25.812 7.265-13.54 13.013-26.327 21.581-40.589 4.442-6.347 9.4267-12.5 11.609-20.08 6.897-16.61 1.5167-1.5799 3.5077-10.531 3.957-1.602 7.1731-4.35 10.38-7.031 2.913-1.321 6.2164-2.3619 7.6973-5.5339 1.974-3.605 5.3582-8.9984 10.229-6.7214 2.143 1.098 4.2914 2.9016 3.8154 5.5986 0.5465 12.2 1.6966 24.68-0.10974 36.76 0.1528 2.527-4.0311 2.8713-3.6821 0.18616-0.242-2.713-4.8083-1.4361-4.0583 1.0739-0.4662 6.348 2.5588 12.06 5.2498 17.57 0.34905 7.432-0.69707 15.031 0.61923 22.371 3.22 4.107 1.2239 10.309 5.2419 13.999 1.279 1.491 4.2648 1.7349 4.3758-0.80736 1.142-9.557-0.0527-19.351 0.73681-28.861 5.078-8.087 2.4229-17.929 2.0929-26.819-0.9074-12.55 0.11326-25.11 3.4822-37.24 1.275-8.084 1.9397-17.76-3.8702-24.33-5.358-4.958-13.52-4.408-20.19-3.249-3.946 1.913-8.1991 5.1511-12.8 2.9551-6.2134-4.6519-9.5202-7.8634-10.844-10.141 0.59776-4.897-0.28026-10.004-2.4142-14.523 1.3728-1.5366 2.6792-3.1931 3.0276-3.541 4.891-6.804 8.0248-15.487 9.9568-23.607 1.944-7.223 3.3504-14.591 4.9754-21.871 1.981-6.007 3.879-12.059 6.306-17.899 1.606-3.736 3.9632-7.0444 6.9742-9.8274 1.952-1.6 0.88946-4.5857 2.6455-6.2746 1.252-0.9326 3.0978 0.15376 2.9708 1.6951 0.0232 1.562 1.932 1.0603 3.006 1.1973 1.347-0.02353 0.8576-1.7166 0.9798-2.5886-0.0961-2.249 0.47901-4.7848-1.0386-6.7018-0.7555-1.211-1.5448-2.5464-1.2698-4.0564 0.2965-2.839 2.1886-5.1591 3.0276-7.856 1.616-5.117 2.4449-10.491 4.9519-15.291 1.2-2.096 3.8658-1.5195 5.7808-0.96608 1.061 0.3763 2.2465 0.75626 3.1765-0.11954 2.328-1.881 2.257-5.1871 2.279-7.9031-0.0683-6.055 0.42402-12.11 0.66822-18.16 0.0406-2.598-0.23182-5.8134-2.5906-7.4014-0.4668-0.2629-1.0062-0.38479-1.5402-0.36449z" fill="#fff" style="paint-order:normal"/>
 <path transform="matrix(.9171 0 0 .9246 30.34 -55.11)" d="m199.8 95.63c1.78 0.5318 3.643 0.7858 5.5 0.75 2.937-0.05666 5.817-0.8298 8.75-1 0.1546-9e-3 0.3103-0.01638 0.4615-0.04997 0.1512-0.03358 0.2995-0.09517 0.4135-0.2 0.1433-0.1318 0.2223-0.3256 0.2318-0.52 9e-3 -0.1944-0.0472-0.3887-0.1422-0.5586-0.1901-0.3398-0.5193-0.5751-0.8396-0.7964-4.252-2.938-8.805-5.439-13.57-7.451m-133.2 33.2c1.536 4.255 3.195 8.466 4.976 12.62 2.929 6.841 6.244 13.63 11.12 19.25 2.393 2.754 5.129 5.186 7.775 7.698 0.7052 0.6695 1.421 1.357 2.299 1.774 0.439 0.2089 0.916 0.3465 1.402 0.3643 0.4859 0.0178 0.9809-0.088 1.399-0.3368 0.4415-0.263 0.7833-0.6784 0.9935-1.147s0.2928-0.9894 0.2793-1.503c-0.02702-1.027-0.4257-2.006-0.8519-2.941-0.8734-1.917-1.887-3.765-2.865-5.631-2.52-4.805-4.814-9.731-6.806-14.78-4.73-11.99-7.754-24.74-7.875-37.62-0.0051-0.5417-0.0051-1.083 0-1.625m63.67-54.35c-2.042-2.687-4.57-5.005-7.425-6.806-4.224-2.665-9.107-4.173-14.05-4.861-5.623-0.7829-11.37-0.536-16.94 0.5607-8.224 1.619-16.08 5.106-22.77 10.16-9.81 7.409-17.02 18.25-19.86 30.21-0.8976 3.782-1.369 7.666-1.403 11.55m62.53-8.338c-10.15-0.05584-20.31 2.746-29 8-5.361 3.241-10.18 7.412-14 12.38-3.72 4.83-6.455 10.34-9 15.87-3.75 8.162-7.162 16.56-8.875 25.38-1.821 9.375-1.676 19.08-0.125 28.5 1.455 8.841 4.174 17.55 8.75 25.25 6.862 11.55 17.55 20.32 28.75 27.75 2.05 1.36 4.139 2.69 6.416 3.622 2.277 0.9315 4.77 1.452 7.209 1.128 0.2338-0.031 0.468-0.0698 0.7039-0.0651 0.2358 5e-3 0.4771 0.0559 0.6711 0.1902 0.1217 0.0842 0.2213 0.199 0.2914 0.3293 0.0702 0.1302 0.1112 0.2756 0.1241 0.4229 0.0258 0.2948-0.0613 0.5926-0.212 0.8473-0.3014 0.5092-0.8281 0.8348-1.329 1.151-1.186 0.7482-2.343 1.556-3.625 2.125-2.292 1.017-4.877 1.216-7.375 1-7.638-0.6605-14.47-4.981-20.38-9.875-6.521-5.407-12.31-11.65-17.62-18.25-8.372-10.41-15.71-22.06-18.5-35.12-0.7715-3.618-1.185-7.306-1.375-11-0.843-16.35 2.661-32.62 7.125-48.38 3.129-11.04 6.886-22.22 14.12-31.12 4.905-6.034 11.24-10.78 18-14.62 8.268-4.696 17.28-8.115 26.62-9.875 7.938-1.495 16.1-1.791 24.12-0.875m53.51 113.3c0.9439 0.3213 1.971 0.3931 2.951 0.2062 0.9794-0.1869 1.908-0.632 2.668-1.278 0.8861-0.7543 1.522-1.754 2.125-2.75 2.182-3.606 4.106-7.369 5.75-11.25 4.792-11.64 12.09-22.24 21.25-30.88 2.338-2.203 4.797-4.281 7.036-6.584 2.239-2.304 4.272-4.861 5.589-7.79 1.197-2.662 1.805-5.624 3.5-8 1.067-1.496 2.523-2.694 3.5-4.25 1.196-1.906 1.58-4.191 2.125-6.375 0.8297-3.322 2.092-6.579 2.25-10 0.0359-0.776 0.0145-1.556 0.1069-2.327 0.0924-0.7713 0.3077-1.547 0.7681-2.173 0.33-0.4483 0.7773-0.8052 1.275-1.054s1.046-0.3911 1.6-0.4461c0.4576-0.04541 0.9204-0.0322 1.376-0.0951s0.917-0.2118 1.249-0.5299c0.3051-0.2923 0.472-0.6975 0.6121-1.096 0.1402-0.3986 0.2659-0.8111 0.5129-1.154 0.2254-0.3129 0.5392-0.5495 0.8538-0.7725s0.6386-0.4405 0.8962-0.7275c0.3013-0.3356 0.4973-0.7497 0.7242-1.139 0.2269-0.3897 0.5029-0.7733 0.9008-0.9856 0.2334-0.1245 0.4953-0.1827 0.753-0.2423 0.2577-0.05957 0.5191-0.1236 0.747-0.2577 0.2-0.1177 0.3677-0.2868 0.4958-0.4803s0.2175-0.4112 0.2764-0.6357c0.1177-0.449 0.1141-0.9199 0.1028-1.384-0.0698-2.881-0.4023-5.792 0.125-8.625 0.5697-3.061 2.113-5.857 2.875-8.875 0.2651-1.049 0.4346-2.121 0.706-3.169s0.6526-2.084 1.294-2.956c0.9095-1.236 2.28-2.061 3.25-3.25 0.8506-1.042 1.379-2.346 2.375-3.25 0.6264-0.5687 1.418-0.9504 2.251-1.099s1.704-0.06619 2.499 0.2243c1.001 0.3661 1.878 1.064 2.459 1.958 0.581 0.8938 0.863 1.978 0.7911 3.042-0.538 7.653-0.7049 15.33-0.5 23 0.0346 1.295 0.0797 2.594-0.0333 3.884-0.113 1.291-0.3892 2.581-0.9667 3.741-0.3066 0.6157-0.6998 1.194-1.204 1.662s-1.123 0.823-1.796 0.9628c-0.642 0.1332-1.311 0.06879-1.95-0.07717-0.6392-0.146-1.257-0.3717-1.884-0.565s-1.27-0.3556-1.926-0.3686c-0.6556-0.01303-1.33 0.1331-1.866 0.5108-0.3887 0.2739-0.6897 0.6577-0.924 1.072-0.2343 0.4138-0.4059 0.8595-0.576 1.303-0.9763 2.548-1.932 5.111-2.625 7.75-0.7481 2.849-1.194 5.801-2.375 8.5-0.6874 1.571-1.614 3.032-2.25 4.625-0.2944 0.7372-0.5262 1.506-0.5989 2.296-0.0727 0.7905 0.0195 1.606 0.3489 2.329 0.3506 0.7686 0.9488 1.396 1.375 2.125 0.7415 1.269 0.9274 2.782 1 4.25 0.0721 1.459 0.0477 2.925-0.125 4.375-0.0423 0.3552-0.0944 0.713-0.2241 1.046-0.1297 0.3333-0.3445 0.6441-0.6509 0.8286-0.2915 0.1756-0.6433 0.2248-0.9836 0.2176-0.3402-7e-3 -0.6771-0.067-1.016-0.0926-0.4721-0.0356-0.9497-5e-3 -1.417-0.0809-0.2337-0.0378-0.4646-0.1025-0.675-0.211s-0.4-0.2623-0.533-0.4581c-0.221-0.3255-0.2692-0.7343-0.3115-1.125-0.0423-0.3911-0.0913-0.8-0.3135-1.125-0.1343-0.1963-0.3283-0.351-0.5492-0.4391s-0.4679-0.1093-0.7008-0.0609c-0.3839 0.0798-0.7124 0.3434-0.935 0.6663s-0.3493 0.7022-0.44 1.084c-0.1586 0.667-0.2148 1.353-0.3131 2.032-0.0984 0.6785-0.2429 1.361-0.5619 1.968-0.5382 1.024-1.511 1.73-2.375 2.5-1.712 1.526-3.076 3.405-4.25 5.375-2.927 4.911-4.723 10.4-6.375 15.88-1.411 4.675-2.736 9.377-3.875 14.12-2.038 8.497-3.489 17.17-6.5 25.38-2.635 7.178-6.452 13.92-11.25 19.88m-63.1-121.6c-0.4474 2.369-5e-3 4.895 1.221 6.971 0.4538 0.7686 1.021 1.486 1.75 2 0.9318 0.6569 2.103 0.9501 3.24 0.8646s2.235-0.5401 3.135-1.24c1.22-0.9476 2.061-2.312 2.625-3.75 0.851-2.172 1.113-4.571 0.75-6.875m-14 5c0.1569-1.69 1.099-3.292 2.5-4.25 1.309-0.895 2.923-1.216 4.5-1.375 3.479-0.3512 7.027-0.0093 10.38 1m-58.88 50.37c0.8306 0.4685 1.591 1.06 2.25 1.75 1.454 1.523 2.392 3.532 2.625 5.625m18.25 36.88c-0.1702-0.0255-0.3379-0.0674-0.5-0.125-0.6817-0.242-1.246-0.7588-1.625-1.375-0.5927-0.9638-0.745-2.126-0.875-3.25-0.271-2.342-0.5041-4.695-1-7-0.5298-2.463-1.355-4.851-2.125-7.25-0.6649-2.071-1.29-4.155-1.875-6.25m18.5 61.88c-0.4669-0.7261-0.8069-1.534-1-2.375-0.2084-0.9079-0.2455-1.845-0.3214-2.773-0.0759-0.9284-0.1947-1.867-0.5536-2.727-0.577-1.382-1.716-2.435-2.625-3.625-2.089-2.736-2.972-6.36-2.375-9.75m32.84 76.8c-0.0166 0.0733-0.0314 0.147-0.0442 0.221-0.1272 0.733-0.0657 1.493 0.1326 2.21 0.2827 1.022 0.8455 1.966 1.611 2.7 0.7654 0.7344 1.731 1.258 2.764 1.498m-6.85 9.59c0.0855-0.12 0.1739-0.2379 0.2652-0.3536 0.9882-1.252 2.293-2.222 3.315-3.447 1.394-1.672 2.217-3.769 3.668-5.392 1.158-1.295 2.698-2.244 4.375-2.696m0.3564 108.1c-1.799-0.3562-3.518-1.108-5-2.188-2.299-1.674-3.966-4.066-5.438-6.5-3.618-5.986-6.325-12.52-8-19.31m-46.75 216c0.7529-2.891 0.7962-5.964 0.125-8.875-0.5573-2.417-1.589-4.693-2.5-7-1.599-4.051-2.837-8.242-3.75-12.5-0.7451-3.477-1.273-6.996-1.875-10.5-1.072-6.24-2.38-12.45-4.25-18.5-2.067-6.687-4.809-13.14-7.125-19.75-1.454-4.148-2.747-8.384-3.25-12.75-0.1604-1.393-0.2391-2.807-0.02742-4.193 0.2117-1.386 0.7303-2.751 1.652-3.807 1.278-1.464 3.179-2.196 5-2.875 12.82-4.779 25.63-9.58 38.25-14.88 3.39-1.423 6.765-2.881 10.12-4.375 4.548-1.799 8.912-4.064 13-6.75 1.394-0.916 2.76-1.884 4-3 2.33-2.099 4.166-4.676 6.125-7.125 2.216-2.769 4.625-5.416 6.375-8.5 1.796-3.164 2.844-6.697 3.625-10.25 2.452-11.16 2.374-22.86-0.227-33.98m60.98 245.1-0.875-1.752-2.875-2.375-6-7.875-4.125-9.75-9.75-12.25-3.625-10-2-10.88-2.125-5.75-5.25-13.25-8.125-15.38-2.875-8.625-1.467-8.308 1.022-6.952 3.07-10.37 0.375-2.75 0.1875-32.78 0.1875-11.34v0l7.188-1.344m15.19-176c0.2786 1.677 0.2144 3.411-0.1875 5.062-0.5157 2.12-1.566 4.062-2.438 6.062-1.007 2.313-1.783 4.726-2.875 7-1.381 2.875-3.246 5.485-5.125 8.062-3.099 4.251-6.263 8.46-9.125 12.88-2.701 4.166-5.129 8.511-7.25 13-2.788 5.901-5.051 12.06-8.25 17.75-0.9233 1.642-1.927 3.25-2.625 5-0.8854 2.219-1.257 4.614-1.375 7-0.2217 4.497 0.4368 9.018 0 13.5-0.1352 1.387-0.3753 2.77-0.3638 4.163 0.0115 1.394 0.2972 2.832 1.114 3.962 0.5451 0.7541 1.3 1.335 2.107 1.799 0.8064 0.4642 1.669 0.8205 2.518 1.201 2.262 1.014 4.44 2.205 6.625 3.375 11.15 5.974 22.57 11.44 33.88 17.12 5.439 2.734 11.06 5.691 14.62 10.62 2.212 3.062 3.485 6.704 4.375 10.38 2.07 8.539 2.195 17.56 0.25 26.12-0.7633 3.362-1.844 6.661-3.375 9.75-1.701 3.433-3.937 6.57-5.875 9.875-3.349 5.713-5.791 11.9-8.375 18-1.588 3.748-3.234 7.472-4.75 11.25-1.35 3.365-2.597 6.773-3.625 10.25-0.6057 2.048-1.137 4.127-1.375 6.25-0.5315 4.733 0.4043 9.493 0.625 14.25 0.1302 2.807 0.0164 5.663 0.75 8.375 0.5421 2.004 1.528 3.854 2.375 5.75 1.393 3.118 2.419 6.385 3.5 9.625 1.679 5.03 3.5 10.02 5.625 14.88 2.764 6.321 6.035 12.41 9.5 18.38 4.624 7.96 9.712 16.01 11 25.12 0.3668 2.596 0.4212 5.263 1.25 7.75 0.6626 1.988 1.796 3.784 3 5.5 1.821 2.597 3.828 5.063 6 7.375 2.462 3.569 4.638 7.335 6.5 11.25 0.665 1.398 1.299 2.847 1.441 4.389 0.0714 0.7708 0.0162 1.558-0.2157 2.297-0.2319 0.7386-0.6452 1.427-1.226 1.939-0.6105 0.5384-1.39 0.8682-2.194 0.9954-0.804 0.1271-1.632 0.0578-2.422-0.1378-1.58-0.3912-2.99-1.267-4.384-2.108-3.674-2.214-7.449-4.27-11.38-6-2.296-1.012-4.735-1.976-6.375-3.875-0.9222-1.067-1.534-2.375-1.94-3.726-0.4063-1.351-0.6162-2.752-0.8099-4.149-0.1967-1.419-0.3783-2.857-0.2214-4.282 0.1568-1.424 0.6852-2.854 1.721-3.843 0.857-0.8185 1.992-1.279 3.125-1.625 3.549-1.084 7.385-1.215 11-0.375m-98.62-498.3c0.7825 0.2885 1.517 0.7068 2.164 1.233 0.4818 0.3914 0.917 0.8438 1.262 1.36 0.8535 1.276 1.109 2.85 1.271 4.377s0.2566 3.091 0.8507 4.506c0.4858 1.157 1.288 2.162 2.215 3.009 0.9264 0.8468 1.978 1.545 3.044 2.206 1.857 1.151 3.777 2.203 5.567 3.454 3.057 2.136 5.746 4.896 7.375 8.25 0.7393 1.522 1.258 3.183 1.25 4.875-3e-3 0.6232-0.0773 1.246-0.049 1.868 0.0283 0.6225 0.1699 1.262 0.549 1.757 0.2739 0.3575 0.6574 0.6193 1.067 0.8075s0.846 0.3076 1.282 0.422c0.4356 0.1144 0.874 0.2253 1.29 0.3981s0.8119 0.4114 1.112 0.7474c0.3517 0.3938 0.5543 0.9031 0.6539 1.422 0.0996 0.5185 0.1024 1.05 0.0961 1.578-0.0133 1.127-0.0661 2.256 0.022 3.379 0.0882 1.123 0.3235 2.252 0.853 3.246 0.9081 1.706 2.572 2.85 4.125 4 3.303 2.446 6.36 5.207 9.375 8 5.789 5.363 11.54 10.98 15.28 17.93 2.103 3.905 3.545 8.308 3.182 12.73-0.1065 1.297-0.3666 2.602-0.1768 3.889 0.1892 1.283 0.8204 2.47 1.63 3.484 0.8095 1.014 1.795 1.871 2.79 2.703 1.962 1.643 4.011 3.236 6.364 4.243 1.375 0.5884 2.85 0.9693 4.345 1.007 1.495 0.0376 3.012-0.2775 4.317-1.007 1.257-0.7022 2.285-1.761 3.536-2.475 2.16-1.233 4.762-1.325 7.248-1.414 2.832-0.1016 5.682-0.238 8.485 0.1768 3.76 0.5563 7.474 2.201 9.9 5.127 1.905 2.297 2.899 5.216 3.536 8.132 1.319 6.038 1.258 12.37-0.1768 18.38-1.653 5.694-2.837 11.52-3.536 17.41-1.232 10.38-0.9523 20.92 0.3536 31.29 0.3068 2.437 0.6704 4.873 0.7415 7.329s-0.159 4.949-1.007 7.255c-0.6331 1.722-1.598 3.308-2.21 5.038-0.4632 1.31-0.717 2.686-0.8839 4.066-0.6809 5.63 0.0636 11.32 0.5303 16.97 0.3092 3.745 0.4765 7.634-0.8839 11.14-0.2424 0.624-0.5469 1.25-1.061 1.679-0.3863 0.3227-0.8743 0.5145-1.374 0.5733-0.4999 0.0588-1.011-0.012-1.487-0.1738-0.9532-0.3236-1.75-0.9941-2.442-1.725-1.521-1.607-2.667-3.635-2.917-5.834-0.1179-1.038-0.0356-2.088-0.0433-3.133-8e-3 -1.045-0.1132-2.117-0.5754-3.054-0.4466-0.9057-1.196-1.626-1.717-2.491-0.5205-0.8635-0.802-1.855-0.9314-2.855s-0.1118-2.013-0.0686-3.02c0.144-3.353 0.5699-6.689 0.6992-10.04 0.1293-3.353-0.0468-6.763-1.074-9.958-1.028-3.197-2.869-6.063-4.25-9.125-0.6375-1.413-1.181-2.88-1.434-4.41-0.2536-1.529-0.2073-3.129 0.3093-4.59 0.4245-1.201 1.164-2.289 2.125-3.125 0.2092-0.2767 0.4939-0.4957 0.815-0.627s0.6776-0.1745 1.021-0.1236c0.3431 0.0508 0.6719 0.1956 0.9411 0.4143s0.4782 0.5109 0.5982 0.8363c0.1577 0.4277 0.1602 0.894 0.2005 1.348 0.0201 0.227 0.0503 0.4543 0.1144 0.673 0.0641 0.2188 0.1632 0.4296 0.3101 0.6039 0.1773 0.2102 0.4226 0.3618 0.6896 0.4279 0.2669 0.0661 0.5541 0.0468 0.8104-0.0529 0.3645-0.1419 0.6539-0.4379 0.8504-0.7762 0.1966-0.3382 0.3086-0.7184 0.3996-1.099 0.2641-1.105 0.3648-2.241 0.4375-3.375 0.7706-12.01-1.5-24.08-0.4375-36.06 0.0556-0.627 0.1186-1.272-0.0625-1.875-0.1794-0.5972-0.583-1.099-1-1.562-0.5944-0.661-1.242-1.285-2-1.75-0.8639-0.5296-1.862-0.8398-2.875-0.8857-1.012-0.0459-2.036 0.1732-2.938 0.6357-1.38 0.7077-2.418 1.941-3.25 3.25-0.9192 1.446-1.631 3.016-2.54 4.468s-2.057 2.819-3.585 3.594c-1.001 0.5077-2.115 0.7377-3.191 1.056s-2.162 0.7539-2.934 1.569c-0.4562 0.4818-0.7782 1.071-1.133 1.632-0.3548 0.5607-0.7618 1.112-1.328 1.459-0.4863 0.2979-1.055 0.4232-1.591 0.6187-1.365 0.4983-2.511 1.452-3.801 2.121-2.03 1.053-4.352 1.373-6.629 1.591-5.463 0.5227-10.97 0.5524-16.44 0.0884m-11.08-140.2c-0.1162-0.6001-0.3513-1.177-0.6875-1.688-0.6847-1.04-1.756-1.766-2.875-2.312-0.7705-0.3763-1.576-0.6804-2.334-1.08-0.7585-0.4-1.481-0.9086-1.978-1.607-0.4877-0.6852-0.7369-1.521-1.25-2.188-0.4915-0.6384-1.201-1.084-1.956-1.367-0.7545-0.2826-1.557-0.4123-2.357-0.5085-1.362-0.1638-2.733-0.2348-4.102-0.3281-2.69-0.1834-5.379-0.4531-8.076-0.4455-4.015 0.0113-8 0.6365-11.99 1.054-6.064 0.6345-12.18 0.7916-18.27 0.4692m63-25.87c-7e-3 0.1457-7e-3 0.2918 0 0.4375 0.0461 0.9912 0.405 1.946 0.8799 2.817s1.066 1.673 1.62 2.496c1.793 2.663 3.25 5.73 3.125 8.937-0.0441 1.133-0.2902 2.265-0.7882 3.284s-1.254 1.921-2.212 2.528c-0.8291 0.526-1.782 0.8204-2.733 1.065-0.951 0.2443-1.918 0.446-2.829 0.8103-2.356 0.9415-4.222 2.981-5.062 5.375-0.9327 2.657-0.602 5.727 0.875 8.125m-1.125-26.24c-0.9633-0.1108-1.894-0.4957-2.654-1.098s-1.347-1.42-1.676-2.332c-0.3281-0.9125-0.396-1.917-0.1935-2.865s0.6746-1.837 1.347-2.536c0.7012-0.7292 1.618-1.248 2.604-1.474s2.038-0.1582 2.986 0.1927m-64.61-3.1c0.3774 2e-3 0.755-0.05394 1.116-0.1653 0.2857-0.08822 0.5622-0.212 0.8052-0.3862s0.4519-0.4002 0.586-0.6674c0.1812-0.3611 0.2182-0.7847 0.1464-1.182-0.0719-0.3976-0.2476-0.7711-0.4707-1.108-0.4461-0.6738-1.074-1.205-1.584-1.832-0.6803-0.8369-1.151-1.88-1.143-2.958 4e-3 -0.5392 0.129-1.08 0.3835-1.555 0.2545-0.4754 0.6404-0.8833 1.113-1.143 0.6279-0.3452 1.364-0.4154 2.073-0.5159 0.3547-0.05024 0.7096-0.11 1.051-0.219 0.3413-0.109 0.6702-0.269 0.9418-0.5026 0.4579-0.3938 0.7238-0.9717 0.8602-1.56 0.1363-0.5884 0.1556-1.196 0.2005-1.799 0.2149-2.886 1.023-5.689 1.768-8.485 1.069-4.014 2.077-8.187 4.596-11.49 2.414-3.165 6.112-5.272 10.04-5.943 3.924-0.6708 8.039 0.05814 11.6 1.846 2.941 1.478 5.48 3.631 8 5.75 3.061 2.574 6.226 5.178 10 6.5 2.521 0.8829 5.206 1.154 7.849 1.536 2.643 0.3822 5.325 0.901 7.651 2.214 0.8631 0.4872 1.671 1.083 2.342 1.813 0.6706 0.7298 1.202 1.597 1.482 2.548 0.1057 0.3594 0.1753 0.7285 0.2727 1.09 0.0974 0.3618 0.2248 0.7204 0.4344 1.031 0.3793 0.5622 0.9991 0.9224 1.642 1.14 0.6424 0.2175 1.319 0.3096 1.982 0.4511 2.029 0.433 3.957 1.344 5.568 2.652 2.113 1.714 3.65 4.078 4.596 6.629 0.5839 1.575 0.9553 3.267 0.7437 4.933-0.1058 0.833-0.3588 1.651-0.7797 2.378s-1.012 1.36-1.732 1.793c-1.101 0.6631-2.428 0.827-3.712 0.8839-3.446 0.1525-6.903-0.3569-10.34-0.08839-0.9516 0.07431-1.901 0.2082-2.856 0.1881-0.9543-0.02007-1.93-0.2051-2.735-0.7184-0.5266-0.3359-0.9626-0.8021-1.308-1.322-0.3454-0.5203-0.603-1.095-0.8133-1.683-0.6647-1.858-0.8639-3.881-0.5745-5.834m-109.1 276.5 1.5 2.312c5.182 2.553 11.31 3.121 16.88 1.562 3.518-0.9856 6.752-2.765 10-4.438 2.314-1.191 4.666-2.343 6.764-3.883s3.954-3.514 4.924-5.929c0.6077-1.513 0.8488-3.143 1.125-4.75 0.5586-3.25 1.279-6.47 2-9.688 4.224-18.84 8.5-37.68 12.31-56.61 0.1981-0.9837 0.395-1.968 0.5621-2.957 0.6724-3.982 0.8582-8.029 1.062-12.06 0.5418-10.7 1.218-21.49-0.5-32.06-0.7201-4.432-1.855-8.784-3-13.12-1.598-6.059-3.217-12.12-4.5-18.25-1.74-8.32-2.859-16.77-5-25-2.026-7.785-4.952-15.3-8-22.75-2.055-5.019-4.192-10.11-4.75-15.5-0.5313-5.137 0.4042-10.34 2-15.25 2.214-6.814 5.709-13.21 10.25-18.75m-22.12 278.1c-1.69 1.646-3.83 2.826-6.125 3.375-2.718 0.6503-5.687 0.3913-8.142-0.9444-1.227-0.6679-2.316-1.596-3.142-2.723-0.8267-1.126-1.388-2.451-1.591-3.833-0.2851-1.944 0.1346-3.913 0.25-5.875 0.2254-3.832-0.748-7.725-2.75-11m38.88 15.88c-2.376 2.47-4.629 5.058-6.75 7.75-0.9331 1.185-1.851 2.401-3.01 3.365-1.159 0.9644-2.607 1.669-4.115 1.635-0.869-0.0197-1.731-0.2883-2.457-0.7657s-1.315-1.162-1.677-1.952c-0.3626-0.79-0.4983-1.683-0.3868-2.545s0.4697-1.691 1.021-2.362m7.024 186.7c-5.996-11.95-12.34-23.73-19.02-35.31-0.373-0.6465-0.7492-1.297-1-2-0.3837-1.076-0.46-2.234-0.5-3.375-0.1711-4.877 0.2544-9.786-0.375-14.62-0.3419-2.629-0.9924-5.209-1.75-7.75-1.739-5.833-4.048-11.49-6.625-17-3.521-7.535-7.557-14.85-10.5-22.62-0.7321-1.935-1.395-3.896-2-5.875-1.053-3.446-1.935-7.088-1.25-10.62 0.7087-3.66 3.172-6.945 6.5-8.625 1.993-1.006 4.214-1.441 6.375-2 5.605-1.449 10.97-3.794 15.88-6.875 6.299-3.959 11.77-9.081 17.12-14.25 1.495-1.444 3.007-2.924 4-4.75 0.8991-1.652 1.333-3.517 1.625-5.375 0.6032-3.839 0.641-7.741 0.75-11.62 0.1792-6.385 0.5544-12.76 1.125-19.12m-1.6348 185.17c1.2 0.0534 2.3548 0.54191 3.2438 1.3491 0.8896 0.807 1.539 1.851 2.018 2.952 0.9578 2.203 1.26 4.638 2.122 6.88 1.354 3.519 3.993 6.355 6.25 9.375 0.7631 1.021 1.492 2.081 2 3.25 0.8453 1.946 1.042 4.139 0.7576 6.242-0.2843 2.103-1.034 4.123-2.008 6.008-0.1117 0.2161-0.2271 0.4318-0.375 0.625-0.4256 0.5556-1.097 0.8854-1.784 1.015-0.6878 0.1298-1.397 0.0771-2.09-0.0151-4.726-0.6284-9.104-3.09-12.48-6.456s-5.805-7.595-7.519-12.04c-0.603-1.565-1.128-3.197-1.125-4.875 4e-3 -1.97 0.7362-3.867 1.625-5.625 1.046-2.069 2.327-4.024 3.875-5.75 0.7211-0.804 1.507-1.564 2.429-2.127 1.2959-0.79899 1.6684-0.53766 3.0606-0.80801zm-22.24-450.27c0.4965-0.2601 0.8858-0.7181 1.062-1.25 0.218-0.6564 0.1132-1.381-0.1113-2.035-0.2245-0.6542-0.5632-1.263-0.8262-1.903-0.9107-2.215-0.8645-4.791 0.05326-7.003s2.682-4.047 4.822-5.122c1.8-0.9045 3.824-1.28 5.833-1.418s4.027-0.05039 6.042-0.08178c5.237-0.08162 10.46-0.9774 15.43-2.645m77.32 123.7c2.519-0.7163 5.172-0.9575 7.778-0.7071 3.497 0.3359 6.904 1.564 9.811 3.536m-98.58-113c-0.3731 1.008-1.002 1.919-1.812 2.625-0.9146 0.797-2.043 1.323-3.213 1.642-1.171 0.3183-2.387 0.436-3.599 0.4834-4.149 0.1622-8.34-0.4822-12.44 0.1875-2.688 0.4394-5.282 1.447-7.562 2.938m104 335.4c-1.942-0.3812-3.87-0.8295-5.781-1.344-4.71-1.267-9.314-2.937-13.72-5.031-4.591-2.183-8.964-4.825-13.03-7.875m225.5-328.9c-1.78 0.5318-3.643 0.7858-5.5 0.75-2.937-0.05666-5.817-0.8298-8.75-1-0.1546-9e-3 -0.3102-0.01638-0.4615-0.04997-0.1512-0.03358-0.2995-0.09517-0.4135-0.2-0.1433-0.1318-0.2223-0.3256-0.2317-0.52-9e-3 -0.1944 0.0472-0.3887 0.1422-0.5586 0.1901-0.3398 0.5193-0.5751 0.8396-0.7964 4.252-2.938 8.805-5.439 13.57-7.451m133.2 33.2c-1.536 4.255-3.195 8.466-4.976 12.62-2.929 6.841-6.244 13.63-11.12 19.25-2.393 2.754-5.129 5.186-7.775 7.698-0.7052 0.6695-1.421 1.357-2.299 1.774-0.439 0.2089-0.916 0.3465-1.402 0.3643-0.4859 0.0178-0.9809-0.088-1.399-0.3368-0.4415-0.263-0.7833-0.6784-0.9934-1.147s-0.2928-0.9894-0.2793-1.503c0.027-1.027 0.4257-2.006 0.8519-2.941 0.8734-1.917 1.887-3.765 2.865-5.631 2.52-4.805 4.814-9.731 6.806-14.78 4.73-11.99 7.754-24.74 7.875-37.63 5e-3 -0.5417 5e-3 -1.083 0-1.625m-63.67-54.35c2.042-2.687 4.57-5.005 7.425-6.806 4.224-2.665 9.107-4.173 14.05-4.861 5.623-0.7829 11.37-0.536 16.94 0.5607 8.224 1.619 16.08 5.106 22.77 10.16 9.81 7.409 17.02 18.25 19.86 30.21 0.8976 3.782 1.369 7.666 1.403 11.55m-62.53-8.338c10.15-0.05584 20.31 2.746 29 8 5.361 3.241 10.18 7.412 14 12.38 3.72 4.83 6.455 10.34 9 15.87 3.75 8.162 7.162 16.56 8.875 25.38 1.821 9.375 1.676 19.08 0.125 28.5-1.455 8.841-4.174 17.55-8.75 25.25-6.862 11.55-17.55 20.32-28.75 27.75-2.05 1.36-4.139 2.69-6.416 3.622-2.277 0.9315-4.77 1.452-7.209 1.128-0.2338-0.031-0.468-0.0698-0.7039-0.0651-0.2358 5e-3 -0.4771 0.0559-0.6711 0.1902-0.1216 0.0842-0.2213 0.199-0.2914 0.3293-0.0702 0.1302-0.1112 0.2756-0.1241 0.4229-0.0258 0.2948 0.0613 0.5926 0.212 0.8473 0.3014 0.5092 0.8281 0.8348 1.329 1.151 1.186 0.7482 2.343 1.556 3.625 2.125 2.292 1.017 4.877 1.216 7.375 1 7.638-0.6604 14.47-4.981 20.38-9.875 6.521-5.407 12.31-11.65 17.62-18.25 8.372-10.41 15.71-22.06 18.5-35.12 0.7715-3.618 1.185-7.306 1.375-11 0.843-16.35-2.661-32.62-7.125-48.38-3.129-11.04-6.886-22.22-14.12-31.12-4.905-6.034-11.24-10.78-18-14.62-8.268-4.696-17.28-8.115-26.62-9.875-7.938-1.495-16.1-1.791-24.12-0.875m-53.51 113.3c-0.9439 0.3213-1.971 0.3931-2.951 0.2062s-1.908-0.632-2.668-1.278c-0.8861-0.7543-1.522-1.754-2.125-2.75-2.182-3.606-4.106-7.369-5.75-11.25-4.792-11.64-12.09-22.24-21.25-30.88-2.338-2.203-4.797-4.281-7.036-6.584-2.239-2.304-4.272-4.861-5.589-7.79-1.197-2.662-1.805-5.624-3.5-8-1.067-1.496-2.523-2.694-3.5-4.25-1.196-1.906-1.58-4.191-2.125-6.375-0.8297-3.322-2.092-6.579-2.25-10-0.0359-0.776-0.0145-1.556-0.1069-2.327-0.0924-0.7713-0.3077-1.547-0.7681-2.173-0.3299-0.4483-0.7773-0.8052-1.275-1.054s-1.046-0.3911-1.6-0.4461c-0.4576-0.04541-0.9204-0.0322-1.376-0.0951s-0.917-0.2118-1.249-0.5299c-0.3051-0.2923-0.472-0.6975-0.6121-1.096s-0.2659-0.8111-0.5129-1.154c-0.2254-0.3129-0.5392-0.5495-0.8538-0.7725s-0.6385-0.4405-0.8962-0.7275c-0.3013-0.3356-0.4973-0.7497-0.7242-1.139-0.2269-0.3897-0.5029-0.7733-0.9008-0.9856-0.2334-0.1245-0.4953-0.1827-0.753-0.2423-0.2577-0.05957-0.5191-0.1236-0.747-0.2577-0.2-0.1177-0.3677-0.2868-0.4958-0.4803s-0.2175-0.4112-0.2764-0.6357c-0.1177-0.449-0.1141-0.9199-0.1028-1.384 0.0698-2.881 0.4023-5.792-0.125-8.625-0.5697-3.061-2.113-5.857-2.875-8.875-0.2651-1.049-0.4346-2.121-0.706-3.169s-0.6526-2.084-1.294-2.956c-0.9095-1.236-2.28-2.061-3.25-3.25-0.8506-1.042-1.379-2.346-2.375-3.25-0.6264-0.5687-1.418-0.9504-2.251-1.099s-1.704-0.06619-2.499 0.2243c-1.001 0.3661-1.878 1.064-2.459 1.958s-0.863 1.978-0.7911 3.042c0.538 7.653 0.7049 15.33 0.5 23-0.0346 1.295-0.0797 2.594 0.0333 3.884 0.113 1.291 0.3892 2.581 0.9667 3.741 0.3066 0.6157 0.6998 1.194 1.204 1.662 0.5039 0.4682 1.123 0.823 1.796 0.9628 0.642 0.1332 1.311 0.06879 1.95-0.07717 0.6392-0.146 1.257-0.3717 1.884-0.565s1.27-0.3556 1.926-0.3686c0.6556-0.01303 1.33 0.1331 1.866 0.5108 0.3887 0.2739 0.6897 0.6577 0.924 1.072 0.2343 0.4138 0.4059 0.8595 0.576 1.303 0.9763 2.548 1.932 5.111 2.625 7.75 0.7481 2.849 1.194 5.801 2.375 8.5 0.6874 1.571 1.614 3.032 2.25 4.625 0.2944 0.7372 0.5262 1.506 0.5989 2.296 0.0727 0.7905-0.0195 1.606-0.3489 2.329-0.3506 0.7686-0.9488 1.396-1.375 2.125-0.7415 1.269-0.9274 2.782-1 4.25-0.0721 1.459-0.0477 2.925 0.125 4.375 0.0423 0.3552 0.0944 0.713 0.2241 1.046 0.1297 0.3333 0.3445 0.6441 0.6509 0.8286 0.2915 0.1756 0.6433 0.2248 0.9836 0.2176 0.3402-7e-3 0.6771-0.067 1.016-0.0926 0.4721-0.0356 0.9497-5e-3 1.417-0.0809 0.2337-0.0378 0.4646-0.1025 0.675-0.211s0.4-0.2623 0.533-0.4581c0.221-0.3255 0.2692-0.7343 0.3115-1.125s0.0913-0.8 0.3135-1.125c0.1344-0.1963 0.3283-0.351 0.5492-0.4391s0.4679-0.1093 0.7008-0.0609c0.384 0.0798 0.7124 0.3434 0.935 0.6663s0.3493 0.7022 0.44 1.084c0.1586 0.667 0.2148 1.353 0.3131 2.032 0.0984 0.6785 0.2429 1.361 0.5619 1.968 0.5382 1.024 1.511 1.73 2.375 2.5 1.712 1.526 3.076 3.405 4.25 5.375 2.927 4.911 4.723 10.4 6.375 15.88 1.411 4.675 2.736 9.377 3.875 14.12 2.038 8.497 3.489 17.17 6.5 25.38 2.635 7.178 6.452 13.92 11.25 19.88m63.1-121.6c0.4474 2.369 5e-3 4.895-1.221 6.971-0.4538 0.7686-1.021 1.486-1.75 2-0.9318 0.6569-2.103 0.9501-3.24 0.8646s-2.235-0.5401-3.135-1.24c-1.22-0.9476-2.061-2.312-2.625-3.75-0.851-2.172-1.113-4.571-0.75-6.875m14 5c-0.1569-1.69-1.099-3.292-2.5-4.25-1.308-0.895-2.923-1.216-4.5-1.375-3.479-0.3512-7.027-0.0093-10.38 1m58.88 50.37c-0.8306 0.4685-1.591 1.06-2.25 1.75-1.454 1.523-2.392 3.532-2.625 5.625m-18.25 36.88c0.1702-0.0255 0.3379-0.0674 0.5-0.125 0.6817-0.242 1.246-0.7588 1.625-1.375 0.5927-0.9638 0.745-2.126 0.875-3.25 0.271-2.342 0.5041-4.695 1-7 0.5298-2.463 1.355-4.851 2.125-7.25 0.6649-2.071 1.29-4.155 1.875-6.25m-18.5 61.88c0.4669-0.7261 0.8069-1.534 1-2.375 0.2084-0.9079 0.2455-1.845 0.3214-2.773 0.0759-0.9284 0.1947-1.867 0.5536-2.727 0.577-1.382 1.716-2.435 2.625-3.625 2.089-2.736 2.972-6.36 2.375-9.75m-32.84 76.8c0.0166 0.0733 0.0314 0.147 0.0442 0.221 0.1272 0.733 0.0657 1.493-0.1326 2.21-0.2827 1.022-0.8455 1.966-1.611 2.7-0.7654 0.7344-1.731 1.258-2.764 1.498m6.85 9.59c-0.0855-0.12-0.1739-0.2379-0.2652-0.3536-0.9882-1.252-2.293-2.222-3.315-3.447-1.394-1.672-2.217-3.769-3.668-5.392-1.158-1.295-2.698-2.244-4.375-2.696m-0.3564 108.1c1.799-0.3562 3.518-1.108 5-2.188 2.299-1.674 3.966-4.066 5.438-6.5 3.618-5.986 6.325-12.52 8-19.31m46.75 216c-0.7529-2.891-0.7962-5.964-0.125-8.875 0.5573-2.417 1.589-4.693 2.5-7 1.599-4.051 2.837-8.242 3.75-12.5 0.7452-3.477 1.273-6.996 1.875-10.5 1.072-6.24 2.38-12.45 4.25-18.5 2.067-6.687 4.809-13.14 7.125-19.75 1.454-4.148 2.747-8.384 3.25-12.75 0.1604-1.393 0.2392-2.807 0.0274-4.193-0.2117-1.386-0.7303-2.751-1.652-3.807-1.278-1.464-3.179-2.196-5-2.875-12.82-4.779-25.63-9.58-38.25-14.88-3.39-1.423-6.765-2.881-10.12-4.375-4.548-1.799-8.912-4.064-13-6.75-1.394-0.916-2.76-1.884-4-3-2.33-2.099-4.166-4.676-6.125-7.125-2.216-2.769-4.625-5.416-6.375-8.5-1.796-3.164-2.844-6.697-3.625-10.25-2.452-11.16-2.374-22.86 0.227-33.98m-60.98 245.1s0.46793-1.2404 0.875-1.752c0.77266-0.97105 2.0142-1.4798 2.875-2.375 2.2895-2.381 4.3453-5.0233 6-7.875 1.7725-3.0548 2.32-6.714 4.125-9.75 2.6642-4.4813 7.2045-7.7013 9.75-12.25 1.7332-3.0971 2.6974-6.5793 3.625-10 0.96537-3.5599 1.0235-7.323 2-10.88 0.54073-1.9697 2.125-5.75 2.125-5.75l5.25-13.25s5.8474-10.051 8.125-15.38c1.1916-2.7879 2.1305-5.6884 2.875-8.625 0.69123-2.7266 1.4265-5.4968 1.467-8.308 0.0337-2.3416-0.51781-4.6642-1.022-6.952-0.77562-3.5195-2.3128-6.8466-3.07-10.37-0.19443-0.90469-0.30972-1.8273-0.375-2.75-0.77114-10.9-0.1875-32.78-0.1875-32.78l-0.1875-11.34v0l-7.188-1.344m-15.19-176c-0.2786 1.677-0.2144 3.411 0.1875 5.062 0.5157 2.12 1.566 4.062 2.438 6.062 1.007 2.313 1.783 4.726 2.875 7 1.381 2.875 3.246 5.485 5.125 8.062 3.099 4.251 6.263 8.46 9.125 12.88 2.701 4.166 5.129 8.511 7.25 13 2.788 5.901 5.051 12.06 8.25 17.75 0.9233 1.642 1.927 3.25 2.625 5 0.8854 2.219 1.257 4.614 1.375 7 0.2217 4.497-0.4368 9.018 0 13.5 0.1352 1.387 0.3753 2.77 0.3638 4.163-0.0114 1.394-0.2972 2.832-1.114 3.962-0.5451 0.7541-1.3 1.335-2.107 1.799-0.8064 0.4642-1.669 0.8205-2.518 1.201-2.262 1.014-4.44 2.205-6.625 3.375-11.15 5.974-22.57 11.44-33.88 17.12-5.439 2.734-11.06 5.691-14.62 10.62-2.212 3.062-3.485 6.704-4.375 10.38-2.07 8.539-2.195 17.56-0.25 26.12 0.7633 3.362 1.844 6.661 3.375 9.75 1.701 3.433 3.937 6.57 5.875 9.875 3.349 5.713 5.791 11.9 8.375 18 1.588 3.748 3.234 7.472 4.75 11.25 1.35 3.365 2.597 6.773 3.625 10.25 0.6057 2.048 1.137 4.127 1.375 6.25 0.5315 4.733-0.4043 9.493-0.625 14.25-0.1302 2.807-0.0164 5.663-0.75 8.375-0.5421 2.004-1.528 3.854-2.375 5.75-1.393 3.118-2.419 6.385-3.5 9.625-1.679 5.03-3.5 10.02-5.625 14.88-2.764 6.321-6.035 12.41-9.5 18.38-4.624 7.96-9.712 16.01-11 25.12-0.3668 2.596-0.4212 5.263-1.25 7.75-0.6626 1.988-1.796 3.784-3 5.5-1.821 2.597-3.828 5.063-6 7.375-2.462 3.569-4.638 7.335-6.5 11.25-0.665 1.398-1.299 2.847-1.441 4.389-0.0714 0.7708-0.0162 1.558 0.2157 2.297s0.6452 1.427 1.226 1.939c0.6105 0.5384 1.39 0.8682 2.194 0.9954 0.804 0.1271 1.632 0.0578 2.422-0.1378 1.58-0.3912 2.99-1.267 4.384-2.108 3.674-2.214 7.449-4.27 11.38-6 2.296-1.012 4.735-1.976 6.375-3.875 0.9222-1.067 1.534-2.375 1.94-3.726 0.4063-1.351 0.6162-2.752 0.8098-4.149 0.1967-1.419 0.3783-2.857 0.2214-4.282-0.1568-1.424-0.6852-2.854-1.721-3.843-0.857-0.8185-1.992-1.279-3.125-1.625-3.549-1.084-7.385-1.215-11-0.375m98.62-498.3c-0.7825 0.2885-1.517 0.7068-2.164 1.233-0.4818 0.3914-0.917 0.8438-1.262 1.36-0.8535 1.276-1.109 2.85-1.271 4.377-0.1613 1.526-0.2566 3.091-0.8507 4.506-0.4858 1.157-1.288 2.162-2.215 3.009-0.9264 0.8468-1.978 1.545-3.044 2.206-1.857 1.151-3.777 2.203-5.567 3.454-3.057 2.136-5.746 4.896-7.375 8.25-0.7393 1.522-1.258 3.183-1.25 4.875 3e-3 0.6232 0.0773 1.246 0.049 1.868-0.0283 0.6225-0.1699 1.262-0.549 1.757-0.2739 0.3575-0.6574 0.6193-1.067 0.8075-0.4091 0.1883-0.846 0.3076-1.282 0.422s-0.874 0.2253-1.29 0.3981c-0.4159 0.1728-0.8119 0.4114-1.112 0.7474-0.3517 0.3938-0.5543 0.9031-0.6539 1.422-0.0996 0.5185-0.1024 1.05-0.0961 1.578 0.0134 1.127 0.0661 2.256-0.022 3.379-0.0882 1.123-0.3235 2.252-0.853 3.246-0.9081 1.706-2.572 2.85-4.125 4-3.303 2.446-6.36 5.207-9.375 8-5.789 5.363-11.54 10.98-15.28 17.93-2.103 3.905-3.545 8.308-3.182 12.73 0.1065 1.297 0.3666 2.602 0.1768 3.889-0.1892 1.283-0.8204 2.47-1.63 3.484-0.8095 1.014-1.795 1.871-2.79 2.703-1.962 1.643-4.011 3.236-6.364 4.243-1.375 0.5884-2.85 0.9693-4.345 1.007-1.495 0.0376-3.012-0.2775-4.317-1.007-1.257-0.7022-2.285-1.761-3.536-2.475-2.16-1.233-4.762-1.325-7.248-1.414-2.832-0.1016-5.682-0.238-8.485 0.1768-3.76 0.5563-7.474 2.201-9.9 5.127-1.905 2.297-2.899 5.216-3.536 8.132-1.319 6.038-1.258 12.37 0.1768 18.38 1.653 5.694 2.837 11.52 3.536 17.41 1.232 10.38 0.9523 20.92-0.3536 31.29-0.3068 2.437-0.6704 4.873-0.7415 7.329s0.159 4.949 1.007 7.255c0.6331 1.722 1.598 3.308 2.21 5.038 0.4632 1.31 0.717 2.686 0.8839 4.066 0.6809 5.63-0.0636 11.32-0.5303 16.97-0.3092 3.745-0.4765 7.634 0.8839 11.14 0.2424 0.624 0.5469 1.25 1.061 1.679 0.3863 0.3227 0.8743 0.5145 1.374 0.5733 0.4999 0.0588 1.011-0.012 1.487-0.1738 0.9532-0.3236 1.75-0.9941 2.442-1.725 1.521-1.607 2.667-3.635 2.917-5.834 0.1179-1.038 0.0356-2.088 0.0433-3.133 8e-3 -1.045 0.1132-2.117 0.5754-3.054 0.4466-0.9057 1.196-1.626 1.717-2.491 0.5205-0.8635 0.802-1.855 0.9314-2.855s0.1118-2.013 0.0686-3.02c-0.144-3.353-0.5699-6.689-0.6992-10.04-0.1293-3.353 0.0468-6.763 1.074-9.958 1.028-3.197 2.869-6.063 4.25-9.125 0.6375-1.413 1.181-2.88 1.434-4.41s0.2073-3.129-0.3093-4.59c-0.4245-1.201-1.164-2.289-2.125-3.125-0.2092-0.2767-0.4939-0.4957-0.815-0.627s-0.6776-0.1745-1.021-0.1236c-0.3431 0.0508-0.6719 0.1956-0.9411 0.4143s-0.4782 0.5109-0.5982 0.8363c-0.1577 0.4277-0.1602 0.894-0.2005 1.348-0.0201 0.227-0.0503 0.4543-0.1144 0.673-0.0641 0.2188-0.1632 0.4296-0.3101 0.6039-0.1773 0.2102-0.4226 0.3618-0.6896 0.4279-0.2669 0.0661-0.5541 0.0468-0.8104-0.0529-0.3645-0.1419-0.6539-0.4379-0.8504-0.7762-0.1966-0.3382-0.3086-0.7184-0.3996-1.099-0.2641-1.105-0.3648-2.241-0.4375-3.375-0.7706-12.01 1.5-24.08 0.4375-36.06-0.0556-0.627-0.1186-1.272 0.0625-1.875 0.1794-0.5972 0.583-1.099 1-1.562 0.5944-0.661 1.242-1.285 2-1.75 0.8639-0.5296 1.862-0.8398 2.875-0.8857 1.012-0.0459 2.036 0.1732 2.938 0.6357 1.38 0.7077 2.418 1.941 3.25 3.25 0.9192 1.446 1.631 3.016 2.54 4.468s2.057 2.819 3.585 3.594c1.001 0.5077 2.115 0.7377 3.191 1.056 1.076 0.3184 2.163 0.7539 2.934 1.569 0.4562 0.4818 0.7783 1.071 1.133 1.632 0.3548 0.5607 0.7618 1.112 1.328 1.459 0.4864 0.2979 1.055 0.4232 1.591 0.6187 1.365 0.4983 2.511 1.452 3.801 2.121 2.03 1.053 4.352 1.373 6.629 1.591 5.463 0.5227 10.97 0.5524 16.44 0.0884m11.08-140.2c0.1162-0.6001 0.3513-1.177 0.6875-1.688 0.6848-1.04 1.756-1.766 2.875-2.312 0.7705-0.3763 1.576-0.6804 2.334-1.08 0.7585-0.4 1.481-0.9086 1.978-1.607 0.4877-0.6852 0.7369-1.521 1.25-2.188 0.4915-0.6384 1.201-1.084 1.956-1.367 0.7545-0.2826 1.557-0.4123 2.357-0.5085 1.362-0.1638 2.733-0.2348 4.102-0.3281 2.69-0.1834 5.379-0.4531 8.076-0.4455 4.015 0.0113 8 0.6365 11.99 1.054 6.064 0.6345 12.18 0.7916 18.27 0.4692m-63-25.87c7e-3 0.1457 7e-3 0.2918 0 0.4375-0.0461 0.9912-0.405 1.946-0.8799 2.817-0.4749 0.8712-1.066 1.673-1.62 2.496-1.793 2.663-3.25 5.73-3.125 8.937 0.0441 1.133 0.2902 2.265 0.7882 3.284s1.254 1.921 2.212 2.528c0.8291 0.526 1.782 0.8204 2.733 1.065 0.951 0.2443 1.918 0.446 2.829 0.8103 2.356 0.9415 4.222 2.981 5.062 5.375 0.9327 2.657 0.602 5.727-0.875 8.125m1.125-26.24c0.9633-0.1108 1.894-0.4957 2.654-1.098 0.76-0.6022 1.347-1.42 1.676-2.332s0.396-1.917 0.1935-2.865c-0.2025-0.9483-0.6746-1.837-1.347-2.536-0.7012-0.7292-1.618-1.248-2.604-1.474s-2.038-0.1582-2.986 0.1927m64.61-3.1c-0.3774 2e-3 -0.755-0.05394-1.116-0.1653-0.2857-0.08822-0.5622-0.212-0.8052-0.3862s-0.4519-0.4002-0.586-0.6674c-0.1812-0.3611-0.2182-0.7847-0.1464-1.182 0.0719-0.3976 0.2476-0.7711 0.4707-1.108 0.4461-0.6738 1.074-1.205 1.584-1.832 0.6803-0.8369 1.151-1.88 1.143-2.958-4e-3 -0.5392-0.129-1.08-0.3835-1.555-0.2545-0.4754-0.6404-0.8833-1.113-1.143-0.6278-0.3452-1.364-0.4154-2.073-0.5159-0.3547-0.05024-0.7096-0.11-1.051-0.219s-0.6702-0.269-0.9418-0.5026c-0.4579-0.3938-0.7238-0.9717-0.8602-1.56-0.1363-0.5884-0.1557-1.196-0.2005-1.799-0.2149-2.886-1.023-5.689-1.768-8.485-1.069-4.014-2.077-8.187-4.596-11.49-2.414-3.165-6.112-5.272-10.04-5.943-3.924-0.6708-8.039 0.05814-11.6 1.846-2.941 1.478-5.48 3.631-8 5.75-3.061 2.574-6.226 5.178-10 6.5-2.521 0.8829-5.206 1.154-7.849 1.536-2.643 0.3822-5.325 0.901-7.651 2.214-0.8631 0.4872-1.671 1.083-2.342 1.813-0.6706 0.7298-1.202 1.597-1.482 2.548-0.1057 0.3594-0.1753 0.7285-0.2727 1.09-0.0974 0.3618-0.2248 0.7204-0.4344 1.031-0.3793 0.5622-0.9991 0.9224-1.642 1.14-0.6424 0.2175-1.319 0.3096-1.982 0.4511-2.029 0.433-3.957 1.344-5.568 2.652-2.113 1.714-3.65 4.078-4.596 6.629-0.5839 1.575-0.9553 3.267-0.7437 4.933 0.1058 0.833 0.3588 1.651 0.7797 2.378s1.012 1.36 1.732 1.793c1.101 0.6631 2.428 0.827 3.712 0.8839 3.446 0.1525 6.903-0.3569 10.34-0.08839 0.9516 0.07431 1.901 0.2082 2.856 0.1881 0.9543-0.02007 1.93-0.2051 2.735-0.7184 0.5266-0.3359 0.9626-0.8021 1.308-1.322 0.3454-0.5203 0.603-1.095 0.8133-1.683 0.6647-1.858 0.8639-3.881 0.5745-5.834m109.1 276.5-1.5 2.312c-5.182 2.553-11.31 3.121-16.88 1.562-3.518-0.9856-6.752-2.765-10-4.438-2.314-1.191-4.666-2.343-6.764-3.883s-3.954-3.514-4.924-5.929c-0.6077-1.513-0.8488-3.143-1.125-4.75-0.5586-3.25-1.279-6.47-2-9.688-4.224-18.84-8.5-37.68-12.31-56.61-0.1981-0.9837-0.395-1.968-0.5621-2.957-0.6724-3.982-0.8582-8.029-1.062-12.06-0.5418-10.7-1.218-21.49 0.5-32.06 0.7201-4.432 1.855-8.784 3-13.12 1.598-6.059 3.217-12.12 4.5-18.25 1.74-8.32 2.859-16.77 5-25 2.026-7.785 4.952-15.3 8-22.75 2.055-5.019 4.192-10.11 4.75-15.5 0.5313-5.137-0.4042-10.34-2-15.25-2.214-6.814-5.709-13.21-10.25-18.75m22.12 278.1c1.69 1.646 3.83 2.826 6.125 3.375 2.718 0.6503 5.687 0.3913 8.142-0.9444 1.227-0.6679 2.316-1.596 3.142-2.723 0.8267-1.126 1.388-2.451 1.591-3.833 0.2851-1.944-0.1346-3.913-0.25-5.875-0.2254-3.832 0.748-7.725 2.75-11m-38.88 15.88c2.376 2.47 4.629 5.058 6.75 7.75 0.9331 1.185 1.851 2.401 3.01 3.365 1.159 0.9644 2.607 1.669 4.115 1.635 0.869-0.0197 1.731-0.2883 2.457-0.7657 0.7263-0.4775 1.315-1.162 1.677-1.952 0.3626-0.79 0.4983-1.683 0.3868-2.545s-0.4697-1.691-1.021-2.362m-7.024 186.7c5.996-11.95 12.34-23.73 19.02-35.31 0.373-0.6465 0.7492-1.297 1-2 0.3837-1.076 0.46-2.234 0.5-3.375 0.1711-4.877-0.2544-9.786 0.375-14.62 0.3419-2.629 0.9924-5.209 1.75-7.75 1.739-5.833 4.048-11.49 6.625-17 3.521-7.535 7.557-14.85 10.5-22.62 0.7321-1.935 1.395-3.896 2-5.875 1.053-3.446 1.935-7.088 1.25-10.62-0.7087-3.66-3.172-6.945-6.5-8.625-1.993-1.006-4.214-1.441-6.375-2-5.605-1.449-10.97-3.794-15.88-6.875-6.299-3.959-11.77-9.081-17.12-14.25-1.495-1.444-3.007-2.924-4-4.75-0.8991-1.652-1.333-3.517-1.625-5.375-0.6032-3.839-0.641-7.741-0.75-11.62-0.1792-6.385-0.5544-12.76-1.125-19.12m1.625 185.1c-1.2 0.0534-2.345 0.6108-3.234 1.418s-1.539 1.851-2.018 2.952c-0.9578 2.203-1.26 4.638-2.122 6.88-1.354 3.519-3.993 6.355-6.25 9.375-0.7631 1.021-1.492 2.081-2 3.25-0.8453 1.946-1.042 4.139-0.7576 6.242 0.2843 2.103 1.034 4.123 2.008 6.008 0.1117 0.2161 0.2271 0.4318 0.375 0.625 0.4256 0.5556 1.097 0.8854 1.785 1.015 0.6878 0.1298 1.397 0.0771 2.09-0.0151 4.726-0.6284 9.104-3.09 12.48-6.456 3.378-3.365 5.805-7.595 7.519-12.04 0.603-1.565 1.128-3.197 1.125-4.875-4e-3 -1.97-0.7362-3.867-1.625-5.625-1.046-2.069-2.327-4.024-3.875-5.75-0.7211-0.804-1.507-1.564-2.429-2.127-0.9218-0.5628-1.992-0.9214-3.071-0.8735zm22.25-450.2c-0.4965-0.2601-0.8858-0.7181-1.062-1.25-0.218-0.6564-0.1132-1.381 0.1113-2.035 0.2245-0.6542 0.5632-1.263 0.8262-1.903 0.9107-2.215 0.8645-4.791-0.0533-7.003s-2.682-4.047-4.822-5.122c-1.8-0.9045-3.824-1.28-5.833-1.418-2.01-0.1384-4.027-0.05039-6.042-0.08178-5.237-0.08162-10.46-0.9774-15.43-2.645m-77.32 123.7c-2.519-0.7163-5.172-0.9575-7.778-0.7071-3.497 0.3359-6.904 1.564-9.811 3.536m98.58-113c0.3731 1.008 1.002 1.919 1.812 2.625 0.9146 0.797 2.043 1.323 3.213 1.642 1.171 0.3183 2.387 0.436 3.599 0.4834 4.149 0.1622 8.34-0.4822 12.44 0.1875 2.688 0.4394 5.282 1.447 7.562 2.938m-104 335.4c1.942-0.3812 3.87-0.8295 5.781-1.344 4.71-1.267 9.314-2.937 13.72-5.031 4.591-2.183 8.964-4.825 13.03-7.875" fill-opacity="0" stroke="#000" stroke-linecap="round" stroke-width="3"/>
 <path transform="matrix(1.231 0 0 .8085 16.22 -41.49)" d="m73.75 156.1c0.364 0.2439 0.795 0.3868 1.233 0.4087 0.4377 0.0219 0.8808-0.0773 1.267-0.2837 0.4219-0.2253 0.7747-0.5781 1-1m-7.138-6.454c0.9392 0.307 2.023 0.1308 2.816-0.458 0.3033-0.225 0.565-0.5059 0.768-0.8243m-6.393-7.942c0.648 0.8218 1.715 1.294 2.759 1.222 0.569-0.0396 1.126-0.2334 1.597-0.5552m-7.039-8.11c1.069 0.4211 2.258 0.5355 3.388 0.326 0.5638-0.1045 1.113-0.288 1.626-0.5434m-7.409-11.27c0.9196 0.77 2.102 1.22 3.301 1.256 0.8018 0.0243 1.609-0.133 2.342-0.4569m-4.785-9.121c0.3496 0.307 0.7615 0.5427 1.203 0.6885 0.8191 0.2702 1.739 0.2204 2.524-0.1366m-4.047-67.12c-0.6315 2.255-0.5365 4.708 0.2677 6.907 0.3329 0.9106 0.784 1.778 1.338 2.573m8.744-26.68c-1.823 2.704-2.514 6.147-1.874 9.345 0.2768 1.383 0.7923 2.718 1.517 3.928m15.52-23.84c-1.9 1.854-3.3 4.215-4.015 6.772-0.6382 2.283-0.7307 4.717-0.2677 7.043m18.92-14.22c-1.202 0.9114-2.26 2.013-3.123 3.25-1.599 2.294-2.51 5.06-2.587 7.855m-12.38 212c0.8277-0.324 1.506-1.009 1.822-1.84 0.1994-0.5247 0.2572-1.102 0.1657-1.656m-10.87-2.132c0.7352 0.0397 1.482-0.2524 1.995-0.7805 0.4848-0.499 0.7548-1.2 0.7299-1.895m-9.3-5.876c0.4774 0.2105 1.015 0.2814 1.531 0.2018 0.4734-0.0731 0.9267-0.2722 1.301-0.5715 0.374-0.2992 0.6678-0.6978 0.8429-1.144m-9.295-7.323c0.3558 0.312 0.8091 0.5112 1.28 0.5622s0.9559-0.0464 1.37-0.2749c0.3646-0.2011 0.6733-0.5023 0.8833-0.8619m-9.154-10.08c0.2768 0.4472 0.6787 0.816 1.148 1.053 0.4693 0.2374 1.004 0.3428 1.529 0.3009 0.6648-0.0531 1.308-0.346 1.784-0.8126m-10.62-14.76c0.2392 0.5664 0.6384 1.064 1.139 1.421 0.501 0.3565 1.102 0.5705 1.716 0.6108 0.8676 0.057 1.753-0.2418 2.409-0.8126m-10.97-18.29c0.8249 1.084 1.978 1.915 3.267 2.355 1.3 0.4437 2.734 0.4874 4.059 0.1239m-9.533-17.89c0.5232 1.869 1.775 3.525 3.432 4.537 1.438 0.8789 3.168 1.272 4.845 1.1m-7.68-22.59c-0.1104 2.386 0.8182 4.803 2.498 6.501 1.098 1.11 2.502 1.915 4.015 2.302m-4.996-26.14c0.1314 2.099 0.7804 4.163 1.874 5.959 1.026 1.686 2.442 3.134 4.104 4.198m-3.569-27.22c0.04999 2.828 0.7913 5.641 2.141 8.126 1.169 2.152 2.791 4.056 4.729 5.553m-3.034-32.64c-0.5588 4.617 0.6041 9.422 3.212 13.27 0.7994 1.18 1.729 2.272 2.766 3.25m38.62-68.01c-0.6379 2.845-0.9258 5.769-0.8552 8.684 0.1163 4.805 1.214 9.584 3.207 13.96m-12.9-18.64c-0.4352 2.881-0.5201 5.814-0.2524 8.715 0.3754 4.067 1.447 8.069 3.154 11.78m-11.27-17.26c-1.419 3.963-1.776 8.302-1.022 12.44 0.6579 3.616 2.157 7.077 4.344 10.03m-10.56-15.76c-1.49 4.234-1.863 8.855-1.071 13.27 0.69 3.847 2.258 7.534 4.55 10.7m-9.95-16.39c-1.49 4.234-1.863 8.855-1.071 13.27 0.69 3.847 2.258 7.534 4.55 10.7m-8.849-13.79c-1.49 4.234-1.863 8.855-1.071 13.27 0.69 3.847 2.258 7.534 4.55 10.7m324.6 61.88c-0.364 0.2439-0.795 0.3868-1.233 0.4087-0.4377 0.0219-0.8808-0.0773-1.267-0.2837-0.4219-0.2253-0.7747-0.5781-1-1m7.138-6.454c-0.9392 0.307-2.023 0.1308-2.816-0.458-0.3033-0.225-0.565-0.5059-0.768-0.8243m6.393-7.942c-0.648 0.8218-1.715 1.294-2.759 1.222-0.569-0.0396-1.126-0.2334-1.597-0.5552m7.039-8.11c-1.069 0.4211-2.258 0.5355-3.388 0.326-0.5638-0.1045-1.113-0.288-1.626-0.5434m7.409-11.27c-0.9196 0.77-2.102 1.22-3.301 1.256-0.8018 0.0243-1.609-0.133-2.342-0.4569m4.785-9.121c-0.3496 0.307-0.7615 0.5427-1.203 0.6885-0.8191 0.2702-1.739 0.2204-2.524-0.1366m4.047-67.12c0.6315 2.255 0.5365 4.708-0.2677 6.907-0.3329 0.9106-0.784 1.778-1.338 2.573m-8.744-26.68c1.823 2.704 2.514 6.147 1.874 9.345-0.2768 1.383-0.7923 2.718-1.517 3.928m-15.52-23.84c1.9 1.854 3.3 4.215 4.015 6.772 0.6382 2.283 0.7307 4.717 0.2677 7.043m-18.92-14.22c1.202 0.9114 2.26 2.013 3.123 3.25 1.599 2.294 2.51 5.06 2.587 7.855m12.38 212c-0.8277-0.324-1.506-1.009-1.822-1.84-0.1994-0.5247-0.2572-1.102-0.1656-1.656m10.87-2.132c-0.7352 0.0397-1.482-0.2524-1.995-0.7805-0.4848-0.499-0.7548-1.2-0.7299-1.895m9.3-5.876c-0.4774 0.2105-1.015 0.2814-1.531 0.2018-0.4734-0.0731-0.9267-0.2722-1.301-0.5715s-0.6678-0.6978-0.8429-1.144m9.295-7.323c-0.3558 0.312-0.8091 0.5112-1.28 0.5622-0.4704 0.051-0.9559-0.0464-1.37-0.2749-0.3646-0.2011-0.6733-0.5023-0.8833-0.8619m9.154-10.08c-0.2768 0.4472-0.6787 0.816-1.148 1.053-0.4693 0.2374-1.004 0.3428-1.529 0.3009-0.6648-0.0531-1.308-0.346-1.784-0.8126m10.62-14.76c-0.2392 0.5664-0.6384 1.064-1.139 1.421-0.501 0.3565-1.102 0.5705-1.716 0.6108-0.8676 0.057-1.753-0.2418-2.409-0.8126m10.97-18.29c-0.8249 1.084-1.978 1.915-3.267 2.355-1.3 0.4437-2.734 0.4874-4.059 0.1239m9.533-17.89c-0.5232 1.869-1.775 3.525-3.432 4.537-1.438 0.8789-3.168 1.272-4.845 1.1m7.68-22.59c0.1104 2.386-0.8182 4.803-2.498 6.501-1.098 1.11-2.502 1.915-4.015 2.302m4.996-26.14c-0.1314 2.099-0.7804 4.163-1.874 5.959-1.026 1.686-2.442 3.134-4.104 4.198m3.569-27.22c-0.05 2.828-0.7913 5.641-2.141 8.126-1.169 2.152-2.791 4.056-4.729 5.553m3.034-32.64c0.5588 4.617-0.6041 9.422-3.212 13.27-0.7994 1.18-1.729 2.272-2.766 3.25m-38.62-68.01c0.6378 2.845 0.9258 5.769 0.8552 8.684-0.1163 4.805-1.214 9.584-3.207 13.96m12.9-18.64c0.4352 2.881 0.5201 5.814 0.2524 8.715-0.3754 4.067-1.447 8.069-3.154 11.78m11.27-17.26c1.419 3.963 1.776 8.302 1.022 12.44-0.658 3.616-2.157 7.077-4.344 10.03m10.56-15.76c1.49 4.234 1.863 8.855 1.071 13.27-0.69 3.847-2.258 7.534-4.55 10.7m9.95-16.39c1.49 4.234 1.863 8.855 1.071 13.27-0.69 3.847-2.258 7.534-4.55 10.7m8.849-13.79c1.49 4.234 1.863 8.855 1.071 13.27-0.69 3.847-2.258 7.534-4.55 10.7" fill="none" stroke="#000" stroke-linecap="round" stroke-width=".9999"/>
 <use transform="translate(0,-43.6)" width="100%" height="100%" fill="none" stroke="#000000" stroke-width="5px" xlink:href="#escutcheon"/>
</svg>
