<?xml version="1.0" encoding="UTF-8" standalone="no"?>
<svg xmlns:dc="http://purl.org/dc/elements/1.1/" xmlns:cc="http://creativecommons.org/ns#" xmlns:rdf="http://www.w3.org/1999/02/22-rdf-syntax-ns#" xmlns:svg="http://www.w3.org/2000/svg" xmlns="http://www.w3.org/2000/svg" viewBox="0 0 226.77333 264.57333" height="264.57333" width="226.77333" xml:space="preserve" id="svg2" version="1.1"><metadata id="metadata8"><rdf:RDF><cc:Work rdf:about=""><dc:format>image/svg+xml</dc:format><dc:type rdf:resource="http://purl.org/dc/dcmitype/StillImage"/></cc:Work></rdf:RDF></metadata><defs id="defs6"/><g transform="matrix(1.3333333,0,0,-1.3333333,0,264.57333)" id="g10"><g transform="scale(0.1)" id="g12"><path id="path14" style="fill:#fddd04;fill-opacity:1;fill-rule:evenodd;stroke:none" d="M 0,1984.25 V 850.391 C 0,380.73 380.734,0 850.391,0 1320.06,0 1700.79,380.73 1700.79,850.391 V 1984.25 H 0"/><path id="path16" style="fill:#1c63b7;fill-opacity:1;fill-rule:nonzero;stroke:none" d="M 1682.99,1969.5 H 17.5547 V 992.125 H 1682.99 V 1969.5"/><path id="path18" style="fill:none;stroke:#231f20;stroke-width:10;stroke-linecap:butt;stroke-linejoin:miter;stroke-miterlimit:10;stroke-dasharray:none;stroke-opacity:1" d="M 1682.99,1969.5 H 17.5547 V 992.125 H 1682.99 Z"/><path id="path20" style="fill:#fddd04;fill-opacity:1;fill-rule:nonzero;stroke:none" d="m 814.371,1750.52 36.02,165.75 36.023,-165.75 77.695,150.78 -8.105,-169.43 114.076,125.53 -51.68,-161.55 142.67,91.73 -91.73,-142.68 161.56,51.69 -125.53,-114.08 169.42,8.11 -150.78,-77.7 165.75,-36.02 -165.75,-36.02 150.78,-77.7 -169.42,8.11 125.53,-114.08 -161.56,51.68 91.73,-142.67 -142.67,91.73 51.68,-161.56 -114.076,125.54 8.105,-169.43 -77.695,150.78 -36.023,-165.75 -36.02,165.75 -77.695,-150.78 8.105,169.43 -114.07,-125.54 51.68,161.56 -142.676,-91.73 91.726,142.67 -161.55,-51.68 125.531,114.08 -169.43,-8.1 150.781,77.69 -165.75,36.02 165.75,36.02 -150.781,77.7 169.43,-8.11 -125.531,114.08 161.55,-51.69 -91.726,142.68 142.676,-91.73 -51.68,161.55 114.07,-125.53 -8.105,169.43 77.695,-150.78"/><path id="path22" style="fill:none;stroke:#231f20;stroke-width:10;stroke-linecap:butt;stroke-linejoin:miter;stroke-miterlimit:10;stroke-dasharray:none;stroke-opacity:1" d="m 814.371,1750.52 36.02,165.75 36.023,-165.75 77.695,150.78 -8.105,-169.43 114.076,125.53 -51.68,-161.55 142.67,91.73 -91.73,-142.68 161.56,51.69 -125.53,-114.08 169.42,8.11 -150.78,-77.7 165.75,-36.02 -165.75,-36.02 150.78,-77.7 -169.42,8.11 125.53,-114.08 -161.56,51.68 91.73,-142.67 -142.67,91.73 51.68,-161.56 -114.076,125.54 8.105,-169.43 -77.695,150.78 -36.023,-165.75 -36.02,165.75 -77.695,-150.78 8.105,169.43 -114.07,-125.54 51.68,161.56 -142.676,-91.73 91.726,142.67 -161.55,-51.68 125.531,114.08 -169.43,-8.1 150.781,77.69 -165.75,36.02 165.75,36.02 -150.781,77.7 169.43,-8.11 -125.531,114.08 161.55,-51.69 -91.726,142.68 142.676,-91.73 -51.68,161.55 114.07,-125.53 -8.105,169.43 z"/><path id="path24" style="fill:#ffffff;fill-opacity:1;fill-rule:nonzero;stroke:none" d="m 1081.33,1476.9 c 0,-127.55 -103.392,-230.94 -230.939,-230.94 -127.543,0 -230.942,103.39 -230.942,230.94 0,127.55 103.399,230.94 230.942,230.94 127.547,0 230.939,-103.39 230.939,-230.94"/><path id="path26" style="fill:#fddd04;fill-opacity:1;fill-rule:nonzero;stroke:none" d="m 1044.38,1439.39 c -20.71,-107.13 -124.353,-177.19 -231.489,-156.48 -107.137,20.72 -177.2,124.36 -156.489,231.49 20.715,107.14 124.356,177.21 231.496,156.49 107.137,-20.71 177.192,-124.35 156.482,-231.5"/><path id="path28" style="fill:#1c63b7;fill-opacity:1;fill-rule:nonzero;stroke:none" d="M 522.59,721.148 690.324,829.91 683.898,712.441 Z"/><path id="path30" style="fill:none;stroke:#231f20;stroke-width:10;stroke-linecap:butt;stroke-linejoin:miter;stroke-miterlimit:10;stroke-dasharray:none;stroke-opacity:1" d="M 522.59,721.148 690.324,829.91 683.898,712.441 Z"/><path id="path32" style="fill:#1c63b7;fill-opacity:1;fill-rule:nonzero;stroke:none" d="M 1115.11,771.172 868.035,703.719 1099.37,649.852 c 0,0 -3.14,91.339 15.74,121.32"/><path id="path34" style="fill:none;stroke:#231f20;stroke-width:10;stroke-linecap:butt;stroke-linejoin:miter;stroke-miterlimit:10;stroke-dasharray:none;stroke-opacity:1" d="M 1115.11,771.172 868.035,703.719 1099.37,649.852 c 0,0 -3.14,91.339 15.74,121.32 z"/><path id="path36" style="fill:#1c63b7;fill-opacity:1;fill-rule:nonzero;stroke:none" d="m 1217.41,640.352 293.5,84.269 c 0,0 -103.07,-123.891 -22.03,-258.562 l -261.25,64.171 -10.22,110.122"/><path id="path38" style="fill:none;stroke:#231f20;stroke-width:10;stroke-linecap:butt;stroke-linejoin:miter;stroke-miterlimit:10;stroke-dasharray:none;stroke-opacity:1" d="m 1217.41,640.352 293.5,84.269 c 0,0 -103.07,-123.891 -22.03,-258.562 l -261.25,64.171 z"/><path id="path40" style="fill:#ed1c24;fill-opacity:1;fill-rule:nonzero;stroke:none" d="m 1235.48,583.809 c 0,-13.868 -11.18,-25.118 -24.96,-25.118 -13.78,0 -24.95,11.25 -24.95,25.118 0,13.871 11.17,25.121 24.95,25.121 13.78,0 24.96,-11.25 24.96,-25.121"/><path id="path42" style="fill:#1c63b7;fill-opacity:1;fill-rule:nonzero;stroke:none" d="M 672.883,454.969 662.652,348.02 457.277,470.02 Z"/><path id="path44" style="fill:none;stroke:#231f20;stroke-width:10;stroke-linecap:butt;stroke-linejoin:miter;stroke-miterlimit:10;stroke-dasharray:none;stroke-opacity:1" d="M 672.883,454.969 662.652,348.02 457.277,470.02 Z"/><path id="path46" style="fill:#1c63b7;fill-opacity:1;fill-rule:nonzero;stroke:none" d="M 1090.72,508.828 V 402.68 l -231.341,53.082 z"/><path id="path48" style="fill:none;stroke:#231f20;stroke-width:10;stroke-linecap:butt;stroke-linejoin:miter;stroke-miterlimit:10;stroke-dasharray:none;stroke-opacity:1" d="M 1090.72,508.828 V 402.68 l -231.341,53.082 z"/><path id="path50" style="fill:#1c63b7;fill-opacity:1;fill-rule:nonzero;stroke:none" d="m 777.539,443.871 c -231.348,-12.672 -493.746,31.52 -565.75,89.348 0,0 -38.32,12.769 -21.426,44.48 0,0 47.371,119.68 332.227,143.449 0,0 208.539,25.352 660.98,-61 0,0 147.94,-26.136 158.96,-72.097 11.01,-45.942 -91.81,-65.18 -91.81,-65.18 0,0 -173.55,-62.582 -473.181,-79"/><path id="path52" style="fill:none;stroke:#231f20;stroke-width:10;stroke-linecap:butt;stroke-linejoin:miter;stroke-miterlimit:10;stroke-dasharray:none;stroke-opacity:1" d="m 777.539,443.871 c -231.348,-12.672 -493.746,31.52 -565.75,89.348 0,0 -38.32,12.769 -21.426,44.48 0,0 47.371,119.68 332.227,143.449 0,0 208.539,25.352 660.98,-61 0,0 147.94,-26.136 158.96,-72.097 11.01,-45.942 -91.81,-65.18 -91.81,-65.18 0,0 -173.55,-62.582 -473.181,-79 z"/><path id="path54" style="fill:none;stroke:#231f20;stroke-width:10;stroke-linecap:butt;stroke-linejoin:miter;stroke-miterlimit:10;stroke-dasharray:none;stroke-opacity:1" d="m 185.719,573.309 c 0,0 63.742,-41.879 161.707,-19.309"/><path id="path56" style="fill:#ffffff;fill-opacity:1;fill-rule:nonzero;stroke:none" d="m 410.328,612.762 c 0,-20.391 -16.422,-36.922 -36.668,-36.922 -20.254,0 -36.676,16.531 -36.676,36.922 0,20.386 16.422,36.91 36.676,36.91 20.246,0 36.668,-16.524 36.668,-36.91"/><path id="path58" style="fill:none;stroke:#231f20;stroke-width:10;stroke-linecap:butt;stroke-linejoin:miter;stroke-miterlimit:10;stroke-dasharray:none;stroke-opacity:1" d="m 410.328,612.762 c 0,-20.391 -16.422,-36.922 -36.668,-36.922 -20.254,0 -36.676,16.531 -36.676,36.922 0,20.386 16.422,36.91 36.676,36.91 20.246,0 36.668,-16.524 36.668,-36.91 z"/><path id="path60" style="fill:#231f20;fill-opacity:1;fill-rule:nonzero;stroke:none" d="m 380.883,615.102 c 0,-10.243 -7.488,-18.551 -16.731,-18.551 -9.238,0 -16.726,8.308 -16.726,18.551 0,10.257 7.488,18.57 16.726,18.57 9.243,0 16.731,-8.313 16.731,-18.57"/><path id="path62" style="fill:#ed1c24;fill-opacity:1;fill-rule:nonzero;stroke:none" d="m 614.871,612.762 c 0,-15.774 -12.699,-28.563 -28.363,-28.563 -15.664,0 -28.367,12.789 -28.367,28.563 0,15.769 12.703,28.558 28.367,28.558 15.664,0 28.363,-12.789 28.363,-28.558"/><path id="path64" style="fill:none;stroke:#231f20;stroke-width:10;stroke-linecap:butt;stroke-linejoin:miter;stroke-miterlimit:10;stroke-dasharray:none;stroke-opacity:1" d="m 614.871,612.762 c 0,-15.774 -12.699,-28.563 -28.363,-28.563 -15.664,0 -28.367,12.789 -28.367,28.563 0,15.769 12.703,28.558 28.367,28.558 15.664,0 28.363,-12.789 28.363,-28.558 z"/><path id="path66" style="fill:#ed1c24;fill-opacity:1;fill-rule:nonzero;stroke:none" d="m 722.586,558.691 c 0,-15.769 -12.695,-28.562 -28.359,-28.562 -15.664,0 -28.368,12.793 -28.368,28.562 0,15.77 12.704,28.547 28.368,28.547 15.664,0 28.359,-12.777 28.359,-28.547"/><path id="path68" style="fill:none;stroke:#231f20;stroke-width:10;stroke-linecap:butt;stroke-linejoin:miter;stroke-miterlimit:10;stroke-dasharray:none;stroke-opacity:1" d="m 722.586,558.691 c 0,-15.769 -12.695,-28.562 -28.359,-28.562 -15.664,0 -28.368,12.793 -28.368,28.562 0,15.77 12.704,28.547 28.368,28.547 15.664,0 28.359,-12.777 28.359,-28.547 z"/><path id="path70" style="fill:#ed1c24;fill-opacity:1;fill-rule:nonzero;stroke:none" d="m 821.434,615.102 c 0,-15.774 -12.704,-28.551 -28.368,-28.551 -15.664,0 -28.363,12.777 -28.363,28.551 0,15.777 12.699,28.558 28.363,28.558 15.664,0 28.368,-12.781 28.368,-28.558"/><path id="path72" style="fill:none;stroke:#231f20;stroke-width:10;stroke-linecap:butt;stroke-linejoin:miter;stroke-miterlimit:10;stroke-dasharray:none;stroke-opacity:1" d="m 821.434,615.102 c 0,-15.774 -12.704,-28.551 -28.368,-28.551 -15.664,0 -28.363,12.777 -28.363,28.551 0,15.777 12.699,28.558 28.363,28.558 15.664,0 28.368,-12.781 28.368,-28.558 z"/><path id="path74" style="fill:#ed1c24;fill-opacity:1;fill-rule:nonzero;stroke:none" d="m 916.102,553.648 c 0,-15.769 -12.696,-28.558 -28.36,-28.558 -15.664,0 -28.363,12.789 -28.363,28.558 0,15.774 12.699,28.551 28.363,28.551 15.664,0 28.36,-12.777 28.36,-28.551"/><path id="path76" style="fill:none;stroke:#231f20;stroke-width:10;stroke-linecap:butt;stroke-linejoin:miter;stroke-miterlimit:10;stroke-dasharray:none;stroke-opacity:1" d="m 916.102,553.648 c 0,-15.769 -12.696,-28.558 -28.36,-28.558 -15.664,0 -28.363,12.789 -28.363,28.558 0,15.774 12.699,28.551 28.363,28.551 15.664,0 28.36,-12.777 28.36,-28.551 z"/><path id="path78" style="fill:#ed1c24;fill-opacity:1;fill-rule:nonzero;stroke:none" d="m 1019.94,601.859 c 0,-15.757 -12.71,-28.55 -28.37,-28.55 -15.664,0 -28.359,12.793 -28.359,28.55 0,15.77 12.695,28.563 28.359,28.563 15.66,0 28.37,-12.793 28.37,-28.563"/><path id="path80" style="fill:none;stroke:#231f20;stroke-width:10;stroke-linecap:butt;stroke-linejoin:miter;stroke-miterlimit:10;stroke-dasharray:none;stroke-opacity:1" d="m 1019.94,601.859 c 0,-15.757 -12.71,-28.55 -28.37,-28.55 -15.664,0 -28.359,12.793 -28.359,28.55 0,15.77 12.695,28.563 28.359,28.563 15.66,0 28.37,-12.793 28.37,-28.563 z"/><path id="path82" style="fill:#ed1c24;fill-opacity:1;fill-rule:nonzero;stroke:none" d="m 1127.01,559.281 c 0,-15.769 -12.7,-28.551 -28.36,-28.551 -15.66,0 -28.37,12.782 -28.37,28.551 0,15.778 12.71,28.559 28.37,28.559 15.66,0 28.36,-12.781 28.36,-28.559"/><path id="path84" style="fill:none;stroke:#231f20;stroke-width:10;stroke-linecap:butt;stroke-linejoin:miter;stroke-miterlimit:10;stroke-dasharray:none;stroke-opacity:1" d="m 1127.01,559.281 c 0,-15.769 -12.7,-28.551 -28.36,-28.551 -15.66,0 -28.37,12.782 -28.37,28.551 0,15.778 12.71,28.559 28.37,28.559 15.66,0 28.36,-12.781 28.36,-28.559 z"/><path id="path86" style="fill:#ed1c24;fill-opacity:1;fill-rule:nonzero;stroke:none" d="m 1246.43,580.332 c 0,-15.773 -12.69,-28.562 -28.36,-28.562 -15.66,0 -28.36,12.789 -28.36,28.562 0,15.77 12.7,28.547 28.36,28.547 15.67,0 28.36,-12.777 28.36,-28.547"/><path id="path88" style="fill:none;stroke:#231f20;stroke-width:10;stroke-linecap:butt;stroke-linejoin:miter;stroke-miterlimit:10;stroke-dasharray:none;stroke-opacity:1" d="m 1246.43,580.332 c 0,-15.773 -12.69,-28.562 -28.36,-28.562 -15.66,0 -28.36,12.789 -28.36,28.562 0,15.77 12.7,28.547 28.36,28.547 15.67,0 28.36,-12.777 28.36,-28.547 z"/><path id="path90" style="fill:#ed1c24;fill-opacity:1;fill-rule:nonzero;stroke:none" d="m 402.629,702.309 c 0,0 124.574,-119.161 11.211,-236.629 l 47.484,-7.578 c 0,0 113.961,126.207 -17.539,252.41 l -41.156,-8.203"/><path id="path92" style="fill:none;stroke:#231f20;stroke-width:10;stroke-linecap:butt;stroke-linejoin:miter;stroke-miterlimit:10;stroke-dasharray:none;stroke-opacity:1" d="m 402.629,702.309 c 0,0 124.574,-119.161 11.211,-236.629 l 47.484,-7.578 c 0,0 113.961,126.207 -17.539,252.41 z"/><path id="path94" style="fill:#231f20;fill-opacity:1;fill-rule:nonzero;stroke:none" d="M 1700.79,1984.25 H 0 V 850.391 C 0,380.73 380.734,0 850.391,0 1320.06,0 1700.79,380.73 1700.79,850.391 V 1984.25 Z m -35,-35 V 850.391 C 1665.79,400.781 1300.01,35 850.391,35 400.781,35 35,400.781 35,850.391 V 1949.25 h 1630.79"/></g></g></svg>