<?xml version="1.0" encoding="UTF-8" standalone="no"?>
<svg xmlns:dc="http://purl.org/dc/elements/1.1/" xmlns:cc="http://creativecommons.org/ns#" xmlns:rdf="http://www.w3.org/1999/02/22-rdf-syntax-ns#" xmlns:svg="http://www.w3.org/2000/svg" xmlns="http://www.w3.org/2000/svg" viewBox="0 0 226.77333 264.57333" height="264.57333" width="226.77333" xml:space="preserve" id="svg2" version="1.1"><metadata id="metadata8"><rdf:RDF><cc:Work rdf:about=""><dc:format>image/svg+xml</dc:format><dc:type rdf:resource="http://purl.org/dc/dcmitype/StillImage"/></cc:Work></rdf:RDF></metadata><defs id="defs6"/><g transform="matrix(1.3333333,0,0,-1.3333333,0,264.57333)" id="g10"><g transform="scale(0.1)" id="g12"><path id="path14" style="fill:#fddd04;fill-opacity:1;fill-rule:evenodd;stroke:none" d="M 0,1984.25 V 850.391 C 0,380.73 380.734,0 850.391,0 1320.06,0 1700.79,380.73 1700.79,850.391 V 1984.25 H 0"/><path id="path16" style="fill:#231f20;fill-opacity:1;fill-rule:nonzero;stroke:none" d="M 1461.34,291.34 18.8477,1961.34 V 763.84 l 42.5,-185 42.5003,-97.5 67.5,-110 50,-62.5 102.5,-102.5 107.496,-77.5 147.5,-65.0002 145,-35 110,-10 h 140 l 131.236,37.5 96.26,35 260,200.0002"/><path id="path18" style="fill:none;stroke:#231f20;stroke-width:10;stroke-linecap:butt;stroke-linejoin:miter;stroke-miterlimit:10;stroke-dasharray:none;stroke-opacity:1" d="M 1461.34,291.34 18.8477,1961.34 V 763.84 l 42.5,-185 42.5003,-97.5 67.5,-110 50,-62.5 102.5,-102.5 107.496,-77.5 147.5,-65.0002 145,-35 110,-10 h 140 l 131.236,37.5 96.26,35 z"/><path id="path20" style="fill:#fddd04;fill-opacity:1;fill-rule:nonzero;stroke:none" d="m 958.113,385.219 c -0.07,-15.84 -3.925,-30.731 -10.558,-44 6.066,2.09 12.539,3.261 19.316,3.23 32.473,-0.14 58.689,-26.57 58.559,-59.039 -0.14,-32.469 -26.575,-58.691 -59.047,-58.558 -32.481,0.136 -58.692,26.57 -58.555,59.046 0.02,5.012 0.735,9.84 1.934,14.493 -15.086,-9.082 -32.703,-14.371 -51.598,-14.289 -19.094,0.078 -36.844,5.628 -51.961,15.007 1.211,-4.738 1.914,-9.687 1.891,-14.8 -0.133,-32.481 -26.571,-58.7 -59.043,-58.559 -32.477,0.141 -58.692,26.57 -58.555,59.039 0.133,32.473 26.567,58.699 59.043,58.563 6.957,-0.032 13.598,-1.332 19.785,-3.582 -6.582,13.371 -10.347,28.359 -10.277,44.269 0.062,15.91 3.953,30.883 10.641,44.18 -6.204,-2.188 -12.856,-3.438 -19.813,-3.41 -32.477,0.14 -58.691,26.582 -58.555,59.05 0.133,32.481 26.567,58.692 59.043,58.551 32.477,-0.129 58.692,-26.558 58.555,-59.039 -0.02,-5.121 -0.762,-10.051 -2.012,-14.793 15.192,9.262 32.989,14.66 52.086,14.582 18.887,-0.082 36.465,-5.5 51.473,-14.699 -1.16,4.641 -1.836,9.488 -1.817,14.5 0.137,32.469 26.575,58.687 59.043,58.551 32.479,-0.133 58.689,-26.571 58.559,-59.043 -0.14,-32.469 -26.566,-58.688 -59.047,-58.547 -6.765,0.019 -13.242,1.25 -19.285,3.379 6.523,-13.321 10.262,-28.25 10.195,-44.082 z m 179.427,-15.59 -58.8,57.562 c 0,0 45.35,78.731 -11.38,140.629 -56.73,61.899 -140.02,31.129 -140.02,31.129 l -50.274,52.25 -40.378,-37.019 c 0,0 -50.875,29.32 -118.786,11.429 l 15.778,13.641 c 12.859,11.109 15.672,30.84 4.789,43.891 -7.262,8.711 -19.918,13.871 -41.973,5.968 0,0 15.856,58.11 -45.898,45.071 l -27.618,-7.942 -78.675,-68.117 -9.778,-30.82 c -18.382,-60.379 40.891,-49.653 40.891,-49.653 -9.789,-21.277 -5.754,-34.328 2.285,-42.328 12.055,-11.98 31.953,-10.898 44.145,0.95 l 14.961,14.531 c -23.743,-66.102 1.043,-119.34 1.043,-119.34 l -40.403,-36.992 47.664,-54.641 c 0,0 -37.914,-80.289 18.817,-142.199 56.726,-61.899 139.105,-23.59 139.105,-23.59 l 52.215,-63.578 41.711,56.148 c 0,0 86.074,-53.808 157.249,9.813 l 0.27,0.758 c 69.58,65.359 23.49,155.789 23.49,155.789 l 59.57,36.66"/><path id="path22" style="fill:none;stroke:#231f20;stroke-width:10;stroke-linecap:butt;stroke-linejoin:miter;stroke-miterlimit:10;stroke-dasharray:none;stroke-opacity:1" d="m 958.113,385.219 c -0.07,-15.84 -3.925,-30.731 -10.558,-44 6.066,2.09 12.539,3.261 19.316,3.23 32.473,-0.14 58.689,-26.57 58.559,-59.039 -0.14,-32.469 -26.575,-58.691 -59.047,-58.558 -32.481,0.136 -58.692,26.57 -58.555,59.046 0.02,5.012 0.735,9.84 1.934,14.493 -15.086,-9.082 -32.703,-14.371 -51.598,-14.289 -19.094,0.078 -36.844,5.628 -51.961,15.007 1.211,-4.738 1.914,-9.687 1.891,-14.8 -0.133,-32.481 -26.571,-58.7 -59.043,-58.559 -32.477,0.141 -58.692,26.57 -58.555,59.039 0.133,32.473 26.567,58.699 59.043,58.563 6.957,-0.032 13.598,-1.332 19.785,-3.582 -6.582,13.371 -10.347,28.359 -10.277,44.269 0.062,15.91 3.953,30.883 10.641,44.18 -6.204,-2.188 -12.856,-3.438 -19.813,-3.41 -32.477,0.14 -58.691,26.582 -58.555,59.05 0.133,32.481 26.567,58.692 59.043,58.551 32.477,-0.129 58.692,-26.558 58.555,-59.039 -0.02,-5.121 -0.762,-10.051 -2.012,-14.793 15.192,9.262 32.989,14.66 52.086,14.582 18.887,-0.082 36.465,-5.5 51.473,-14.699 -1.16,4.641 -1.836,9.488 -1.817,14.5 0.137,32.469 26.575,58.687 59.043,58.551 32.479,-0.133 58.689,-26.571 58.559,-59.043 -0.14,-32.469 -26.566,-58.688 -59.047,-58.547 -6.765,0.019 -13.242,1.25 -19.285,3.379 6.523,-13.321 10.262,-28.25 10.195,-44.082 z m 179.427,-15.59 -58.8,57.562 c 0,0 45.35,78.731 -11.38,140.629 -56.73,61.899 -140.02,31.129 -140.02,31.129 l -50.274,52.25 -40.378,-37.019 c 0,0 -50.875,29.32 -118.786,11.429 l 15.778,13.641 c 12.859,11.109 15.672,30.84 4.789,43.891 -7.262,8.711 -19.918,13.871 -41.973,5.968 0,0 15.856,58.11 -45.898,45.071 l -27.618,-7.942 -78.675,-68.117 -9.778,-30.82 c -18.382,-60.379 40.891,-49.653 40.891,-49.653 -9.789,-21.277 -5.754,-34.328 2.285,-42.328 12.055,-11.98 31.953,-10.898 44.145,0.95 l 14.961,14.531 c -23.743,-66.102 1.043,-119.34 1.043,-119.34 l -40.403,-36.992 47.664,-54.641 c 0,0 -37.914,-80.289 18.817,-142.199 56.726,-61.899 139.105,-23.59 139.105,-23.59 l 52.215,-63.578 41.711,56.148 c 0,0 86.074,-53.808 157.249,9.813 l 0.27,0.758 c 69.58,65.359 23.49,155.789 23.49,155.789 z"/><path id="path24" style="fill:#fddd04;fill-opacity:1;fill-rule:nonzero;stroke:none" d="m 407.844,997.52 28.945,25.21 85.524,-96.66 161.988,143.31 -55.481,62.7 -80.992,-71.65 -41.605,47.02 80.992,71.66 -55.477,62.7 -80.988,-71.66 -40.223,45.47 80.993,71.65 -55.473,62.7 -80.996,-71.65 -41.606,47.02 80.996,71.66 -55.48,62.7 -161.981,-143.31 97.079,-109.73 -28.942,-25.21 -97.082,109.73 L 41.8477,1197.23 538.352,636.039 644.543,729.988 407.844,997.52"/><path id="path26" style="fill:none;stroke:#231f20;stroke-width:10;stroke-linecap:butt;stroke-linejoin:miter;stroke-miterlimit:10;stroke-dasharray:none;stroke-opacity:1" d="m 407.844,997.52 28.945,25.21 85.524,-96.66 161.988,143.31 -55.481,62.7 -80.992,-71.65 -41.605,47.02 80.992,71.66 -55.477,62.7 -80.988,-71.66 -40.223,45.47 80.993,71.65 -55.473,62.7 -80.996,-71.65 -41.606,47.02 80.996,71.66 -55.48,62.7 -161.981,-143.31 97.079,-109.73 -28.942,-25.21 -97.082,109.73 -106.1873,-93.95 496.5043,-561.191 106.191,93.949 z"/><path id="path28" style="fill:none;stroke:#231f20;stroke-width:10;stroke-linecap:butt;stroke-linejoin:miter;stroke-miterlimit:10;stroke-dasharray:none;stroke-opacity:1" d="M 575.422,577.648 696.496,689.109"/><path id="path30" style="fill:#231f20;fill-opacity:1;fill-rule:nonzero;stroke:none" d="m 1371.22,1118.89 c 77.84,70.36 146.66,129.15 146.66,129.15 l -107.73,106.6 c -40.4,-57.46 -82.91,-106.07 -123.8,-146.7 -45.49,48.22 -88.32,94.43 -128.41,138.38 77.69,70.2 146.3,128.82 146.3,128.82 l -107.73,106.6 c -39.49,-56.16 -81,-103.92 -121.04,-143.99 -39.17,43.94 -75.23,85.13 -108.06,123.22 75.11,67.7 140.14,123.26 140.14,123.26 l -107.73,106.6 C 963.074,1738.58 924.598,1693.68 887.164,1655.4 772.465,1792.43 733.051,1844.71 733.051,1844.71 L 612.008,1734.79 c 0,0 48.262,-44.26 173.629,-171.59 -41.696,-33.59 -90.082,-67.58 -145.617,-99.13 l 95.753,-117.46 c 0,0 61.559,59.38 136.157,127.64 34.758,-36.33 72.285,-76.18 112.265,-119.39 -43.73,-36.01 -95.254,-72.74 -154.945,-106.66 l 95.758,-117.47 c 0,0 64.93,62.67 142.272,133.26 39.89,-44.13 81.78,-91.19 125.41,-141.11 -44.36,-36.81 -96.84,-74.45 -157.91,-109.14 l 95.76,-117.47 c 0,0 65.13,62.859 142.63,133.58 67.79,-79.178 139.21,-164.631 213.59,-256.311 l 119.07,108.133 c -84.11,82.848 -162.31,162.128 -234.61,237.218"/><path id="path32" style="fill:none;stroke:#231f20;stroke-width:10;stroke-linecap:butt;stroke-linejoin:miter;stroke-miterlimit:10;stroke-dasharray:none;stroke-opacity:1" d="m 1371.22,1118.89 c 77.84,70.36 146.66,129.15 146.66,129.15 l -107.73,106.6 c -40.4,-57.46 -82.91,-106.07 -123.8,-146.7 -45.49,48.22 -88.32,94.43 -128.41,138.38 77.69,70.2 146.3,128.82 146.3,128.82 l -107.73,106.6 c -39.49,-56.16 -81,-103.92 -121.04,-143.99 -39.17,43.94 -75.23,85.13 -108.06,123.22 75.11,67.7 140.14,123.26 140.14,123.26 l -107.73,106.6 C 963.074,1738.58 924.598,1693.68 887.164,1655.4 772.465,1792.43 733.051,1844.71 733.051,1844.71 L 612.008,1734.79 c 0,0 48.262,-44.26 173.629,-171.59 -41.696,-33.59 -90.082,-67.58 -145.617,-99.13 l 95.753,-117.46 c 0,0 61.559,59.38 136.157,127.64 34.758,-36.33 72.285,-76.18 112.265,-119.39 -43.73,-36.01 -95.254,-72.74 -154.945,-106.66 l 95.758,-117.47 c 0,0 64.93,62.67 142.272,133.26 39.89,-44.13 81.78,-91.19 125.41,-141.11 -44.36,-36.81 -96.84,-74.45 -157.91,-109.14 l 95.76,-117.47 c 0,0 65.13,62.859 142.63,133.58 67.79,-79.178 139.21,-164.631 213.59,-256.311 l 119.07,108.133 c -84.11,82.848 -162.31,162.128 -234.61,237.218 z"/><path id="path34" style="fill:#231f20;fill-opacity:1;fill-rule:nonzero;stroke:none" d="M 1700.79,1984.25 H 0 V 850.391 C 0,380.73 380.734,0 850.391,0 1320.06,0 1700.79,380.73 1700.79,850.391 V 1984.25 Z m -35,-35 V 850.391 C 1665.79,400.781 1300.01,35 850.391,35 400.781,35 35,400.781 35,850.391 V 1949.25 h 1630.79"/></g></g></svg>